<?xml version="1.0" encoding="utf-8"?>
<!-- Generator: Adobe Illustrator 21.1.0, SVG Export Plug-In . SVG Version: 6.00 Build 0)  -->
<svg version="1.1" id="Layer_1" xmlns="http://www.w3.org/2000/svg" xmlns:xlink="http://www.w3.org/1999/xlink" x="0px" y="0px"
	 viewBox="0 0 240 120" style="enable-background:new 0 0 240 120;" xml:space="preserve">
<style type="text/css">
	.st0{fill:#7D7160;}
	.st1{fill:#FFFFFF;}
	.st2{fill:#FF6155;}
</style>
<g id="io8pn5.tif">
	<g>
		<path class="st0" d="M23.1,29.9c0.7,0,1.4,0,2.1,0c-0.1-0.3-0.2-0.5-0.3-0.8c-0.3-1.4,0.5-2.8,1.9-3.2c0.2-0.1,0.4-0.1,0.5-0.1
			c0,0,0.1-0.1,0.1-0.1c-0.1-0.8,0.3-1.4,1-1.8c0.4-0.2,0.8-0.5,1.2-0.7c0.2-0.1,0.4-0.3,0.6-0.5c0.3-0.3,0.3-0.7,0-1
			c-0.1-0.1-0.1-0.2-0.2-0.3c0.1,0,0.2,0.1,0.3,0.1c1.1,0.5,2,1.2,2.7,2.1c0.6,0.9,0.7,1.9,0.2,2.9c0,0,0,0.1,0,0.1
			c0.2,0.1,0.3,0.1,0.5,0.2c1.2,0.4,1.7,1.8,1.3,2.9c-0.1,0.2-0.1,0.2,0.1,0.2c0.5,0,1,0,1.4,0c0.1,0,0.1,0,0.2,0
			c-0.1,0.3-0.2,0.6-0.3,0.9c-0.8,2.2-1.6,4.4-2.4,6.6c-0.1,0.2-0.1,0.2-0.3,0.2c-2.5,0-4.9,0-7.4,0c-0.2,0-0.2-0.1-0.3-0.2
			c-0.7-1.8-1.5-3.7-2.2-5.5C23.6,31.3,23.4,30.6,23.1,29.9z M29.6,32.6C29.6,32.6,29.6,32.6,29.6,32.6c0.1,1.3,0.2,2.6,0.2,3.9
			c0,0.2,0.1,0.2,0.2,0.2c0.1,0,0.2-0.1,0.2-0.2c0.1-1.1,0.1-2.2,0.2-3.4c0-0.7,0.1-1.5,0.1-2.2c0-0.2,0-0.2-0.2-0.2
			c-0.2,0-0.5,0-0.7,0c-0.1,0-0.2,0-0.2,0.2C29.5,31.5,29.5,32.1,29.6,32.6z M33,36.7c0.3,0.1,0.4,0.1,0.5-0.2
			c0.7-1.9,1.4-3.7,2.1-5.6c0-0.1,0-0.1,0.1-0.2c-0.3,0-0.6,0-0.9,0c-0.2,0-0.2,0.1-0.3,0.2c-0.4,1.7-0.9,3.4-1.3,5.1
			C33.1,36.3,33.1,36.5,33,36.7z M30.9,35.8C30.9,35.8,30.9,35.8,30.9,35.8c0,0.2,0,0.5,0,0.7c0,0.1,0,0.2,0.1,0.2
			c0.1,0,0.2,0,0.3-0.2c0-0.3,0.1-0.6,0.2-1c0.2-1,0.3-2,0.5-3.1c0.1-0.5,0.2-1.1,0.3-1.6c0-0.1,0-0.2-0.1-0.2c-0.2,0-0.4,0-0.5,0
			c-0.3,0-0.3-0.1-0.3,0.3C31.1,32.7,31,34.3,30.9,35.8z M29.1,35.8C29.1,35.8,29.1,35.8,29.1,35.8C29,34.9,29,34,28.9,33.1
			c0-0.7-0.1-1.4-0.1-2.1c0-0.1-0.1-0.2-0.2-0.2c-0.2,0-0.4,0-0.5,0c-0.3,0-0.3,0-0.3,0.3c0.2,1.3,0.4,2.6,0.6,3.8
			c0.1,0.6,0.2,1.1,0.3,1.7c0,0.2,0.2,0.2,0.3,0.2c0.2,0,0.1-0.1,0.1-0.2C29.1,36.3,29.1,36.1,29.1,35.8z M24.4,30.8
			c0,0.1,0,0.1,0.1,0.2c0.7,1.8,1.4,3.6,2.1,5.4c0,0.1,0.1,0.2,0.1,0.3c0,0,0.1,0,0.2,0.1c0,0,0-0.1,0-0.1c0-0.1,0-0.1,0-0.2
			c-0.3-1.1-0.5-2.1-0.8-3.2c-0.2-0.8-0.4-1.6-0.6-2.3c0-0.1-0.1-0.1-0.1-0.1C25.1,30.8,24.7,30.8,24.4,30.8z M26.2,30.8
			c0.1,0.4,0.2,0.7,0.3,1c0.4,1.4,0.7,2.8,1.1,4.1c0.1,0.2,0.1,0.5,0.2,0.7c0,0.2,0.2,0.1,0.3,0.1c0.1,0,0.1-0.1,0.1-0.2
			c0-0.3-0.1-0.6-0.1-0.9c-0.2-1-0.3-2.1-0.5-3.1c-0.1-0.6-0.2-1.1-0.3-1.7c0-0.1-0.1-0.1-0.1-0.1C26.7,30.8,26.5,30.8,26.2,30.8z
			 M33.4,30.8c-0.1,0-0.1,0-0.2,0c-0.2,0-0.3,0-0.3,0.2c-0.2,1.1-0.4,2.2-0.6,3.3c-0.1,0.8-0.3,1.5-0.4,2.3c0,0.1-0.1,0.2,0.1,0.2
			c0.1,0,0.3,0.1,0.3-0.1c0-0.2,0.1-0.4,0.1-0.6c0.4-1.6,0.8-3.2,1.2-4.9C33.9,30.8,33.8,30.8,33.4,30.8z"/>
		<path class="st1" d="M29.6,32.6c0-0.6-0.1-1.1-0.1-1.7c0-0.2,0-0.2,0.2-0.2c0.2,0,0.5,0,0.7,0c0.2,0,0.2,0,0.2,0.2
			c0,0.7-0.1,1.5-0.1,2.2c-0.1,1.1-0.1,2.2-0.2,3.4c0,0.1-0.1,0.2-0.2,0.2c-0.2,0-0.2,0-0.2-0.2C29.7,35.3,29.6,33.9,29.6,32.6
			C29.6,32.6,29.6,32.6,29.6,32.6z"/>
		<path class="st1" d="M33,36.7c0.1-0.2,0.1-0.4,0.2-0.6c0.4-1.7,0.9-3.4,1.3-5.1c0-0.2,0.1-0.2,0.3-0.2c0.3,0,0.6,0,0.9,0
			c0,0.1,0,0.2-0.1,0.2c-0.7,1.9-1.4,3.7-2.1,5.6C33.4,36.8,33.3,36.8,33,36.7z"/>
		<path class="st1" d="M30.9,35.8c0.1-1.6,0.2-3.1,0.3-4.7c0-0.4,0-0.3,0.3-0.3c0.2,0,0.4,0,0.5,0c0.1,0,0.2,0,0.1,0.2
			c-0.1,0.5-0.2,1.1-0.3,1.6c-0.2,1-0.3,2-0.5,3.1c-0.1,0.3-0.1,0.6-0.2,1c0,0.2-0.2,0.1-0.3,0.2c-0.2,0-0.1-0.1-0.1-0.2
			C30.9,36.3,30.9,36.1,30.9,35.8C30.9,35.8,30.9,35.8,30.9,35.8z"/>
		<path class="st1" d="M29.1,35.8c0,0.3,0,0.5,0,0.8c0,0.1,0.1,0.2-0.1,0.2c-0.1,0-0.3,0-0.3-0.2c-0.1-0.6-0.2-1.1-0.3-1.7
			c-0.2-1.3-0.4-2.6-0.6-3.8c-0.1-0.3-0.1-0.3,0.3-0.3c0.2,0,0.4,0,0.5,0c0.1,0,0.2,0,0.2,0.2c0,0.7,0.1,1.4,0.1,2.1
			C29,34,29,34.9,29.1,35.8C29.1,35.8,29.1,35.8,29.1,35.8z"/>
		<path class="st1" d="M24.4,30.8c0.4,0,0.7,0,1,0c0,0,0.1,0.1,0.1,0.1c0.2,0.8,0.4,1.6,0.6,2.3c0.3,1.1,0.5,2.1,0.8,3.2
			c0,0.1,0,0.1,0,0.2c0,0,0,0.1,0,0.1c-0.1,0-0.2,0-0.2-0.1c-0.1-0.1-0.1-0.2-0.1-0.3c-0.7-1.8-1.4-3.6-2.1-5.4
			C24.4,30.9,24.4,30.9,24.4,30.8z"/>
		<path class="st1" d="M26.2,30.8c0.3,0,0.6,0,0.8,0c0,0,0.1,0.1,0.1,0.1c0.1,0.6,0.2,1.1,0.3,1.7c0.2,1,0.3,2.1,0.5,3.1
			c0.1,0.3,0.1,0.6,0.1,0.9c0,0.1,0.1,0.2-0.1,0.2c-0.1,0-0.3,0.1-0.3-0.1c-0.1-0.2-0.1-0.5-0.2-0.7c-0.4-1.4-0.7-2.8-1.1-4.1
			C26.3,31.5,26.2,31.2,26.2,30.8z"/>
		<path class="st1" d="M33.4,30.8c0.5,0,0.5,0,0.3,0.4c-0.4,1.6-0.8,3.2-1.2,4.9c0,0.2-0.1,0.4-0.1,0.6c0,0.2-0.2,0.1-0.3,0.1
			c-0.1,0-0.1-0.1-0.1-0.2c0.1-0.8,0.3-1.5,0.4-2.3c0.2-1.1,0.4-2.2,0.6-3.3c0-0.2,0.1-0.3,0.3-0.2C33.3,30.8,33.3,30.8,33.4,30.8z"
			/>
	</g>
</g>
<g id="io8pn5.tif_1_">
	<g>
		<path class="st0" d="M83.1,29.9c0.7,0,1.4,0,2.1,0c-0.1-0.3-0.2-0.5-0.3-0.8c-0.3-1.4,0.5-2.8,1.9-3.2c0.2-0.1,0.4-0.1,0.5-0.1
			c0,0,0.1-0.1,0.1-0.1c-0.1-0.8,0.3-1.4,1-1.8c0.4-0.2,0.8-0.5,1.2-0.7c0.2-0.1,0.4-0.3,0.6-0.5c0.3-0.3,0.3-0.7,0-1
			c-0.1-0.1-0.1-0.2-0.2-0.3c0.1,0,0.2,0.1,0.3,0.1c1.1,0.5,2,1.2,2.7,2.1c0.6,0.9,0.7,1.9,0.2,2.9c0,0,0,0.1,0,0.1
			c0.2,0.1,0.3,0.1,0.5,0.2c1.2,0.4,1.7,1.8,1.3,2.9c-0.1,0.2-0.1,0.2,0.1,0.2c0.5,0,1,0,1.4,0c0.1,0,0.1,0,0.2,0
			c-0.1,0.3-0.2,0.6-0.3,0.9c-0.8,2.2-1.6,4.4-2.4,6.6c-0.1,0.2-0.1,0.2-0.3,0.2c-2.5,0-4.9,0-7.4,0c-0.2,0-0.2-0.1-0.3-0.2
			c-0.7-1.8-1.5-3.7-2.2-5.5C83.6,31.3,83.4,30.6,83.1,29.9z M89.6,32.6C89.6,32.6,89.6,32.6,89.6,32.6c0.1,1.3,0.2,2.6,0.2,3.9
			c0,0.2,0.1,0.2,0.2,0.2c0.1,0,0.2-0.1,0.2-0.2c0.1-1.1,0.1-2.2,0.2-3.4c0-0.7,0.1-1.5,0.1-2.2c0-0.2,0-0.2-0.2-0.2
			c-0.2,0-0.5,0-0.7,0c-0.1,0-0.2,0-0.2,0.2C89.5,31.5,89.5,32.1,89.6,32.6z M93,36.7c0.3,0.1,0.4,0.1,0.5-0.2
			c0.7-1.9,1.4-3.7,2.1-5.6c0-0.1,0-0.1,0.1-0.2c-0.3,0-0.6,0-0.9,0c-0.2,0-0.2,0.1-0.3,0.2c-0.4,1.7-0.9,3.4-1.3,5.1
			C93.1,36.3,93.1,36.5,93,36.7z M90.9,35.8C90.9,35.8,90.9,35.8,90.9,35.8c0,0.2,0,0.5,0,0.7c0,0.1,0,0.2,0.1,0.2
			c0.1,0,0.2,0,0.3-0.2c0-0.3,0.1-0.6,0.2-1c0.2-1,0.3-2,0.5-3.1c0.1-0.5,0.2-1.1,0.3-1.6c0-0.1,0-0.2-0.1-0.2c-0.2,0-0.4,0-0.5,0
			c-0.3,0-0.3-0.1-0.3,0.3C91.1,32.7,91,34.3,90.9,35.8z M89.1,35.8C89.1,35.8,89.1,35.8,89.1,35.8C89,34.9,89,34,88.9,33.1
			c0-0.7-0.1-1.4-0.1-2.1c0-0.1-0.1-0.2-0.2-0.2c-0.2,0-0.4,0-0.5,0c-0.3,0-0.3,0-0.3,0.3c0.2,1.3,0.4,2.6,0.6,3.8
			c0.1,0.6,0.2,1.1,0.3,1.7c0,0.2,0.2,0.2,0.3,0.2c0.2,0,0.1-0.1,0.1-0.2C89.1,36.3,89.1,36.1,89.1,35.8z M84.4,30.8
			c0,0.1,0,0.1,0.1,0.2c0.7,1.8,1.4,3.6,2.1,5.4c0,0.1,0.1,0.2,0.1,0.3c0,0,0.1,0,0.2,0.1c0,0,0-0.1,0-0.1c0-0.1,0-0.1,0-0.2
			c-0.3-1.1-0.5-2.1-0.8-3.2c-0.2-0.8-0.4-1.6-0.6-2.3c0-0.1-0.1-0.1-0.1-0.1C85.1,30.8,84.7,30.8,84.4,30.8z M86.2,30.8
			c0.1,0.4,0.2,0.7,0.3,1c0.4,1.4,0.7,2.8,1.1,4.1c0.1,0.2,0.1,0.5,0.2,0.7c0,0.2,0.2,0.1,0.3,0.1c0.1,0,0.1-0.1,0.1-0.2
			c0-0.3-0.1-0.6-0.1-0.9c-0.2-1-0.3-2.1-0.5-3.1c-0.1-0.6-0.2-1.1-0.3-1.7c0-0.1-0.1-0.1-0.1-0.1C86.7,30.8,86.5,30.8,86.2,30.8z
			 M93.4,30.8c-0.1,0-0.1,0-0.2,0c-0.2,0-0.3,0-0.3,0.2c-0.2,1.1-0.4,2.2-0.6,3.3c-0.1,0.8-0.3,1.5-0.4,2.3c0,0.1-0.1,0.2,0.1,0.2
			c0.1,0,0.3,0.1,0.3-0.1c0-0.2,0.1-0.4,0.1-0.6c0.4-1.6,0.8-3.2,1.2-4.9C93.9,30.8,93.8,30.8,93.4,30.8z"/>
		<path class="st1" d="M89.6,32.6c0-0.6-0.1-1.1-0.1-1.7c0-0.2,0-0.2,0.2-0.2c0.2,0,0.5,0,0.7,0c0.2,0,0.2,0,0.2,0.2
			c0,0.7-0.1,1.5-0.1,2.2c-0.1,1.1-0.1,2.2-0.2,3.4c0,0.1-0.1,0.2-0.2,0.2c-0.2,0-0.2,0-0.2-0.2C89.7,35.3,89.6,33.9,89.6,32.6
			C89.6,32.6,89.6,32.6,89.6,32.6z"/>
		<path class="st1" d="M93,36.7c0.1-0.2,0.1-0.4,0.2-0.6c0.4-1.7,0.9-3.4,1.3-5.1c0-0.2,0.1-0.2,0.3-0.2c0.3,0,0.6,0,0.9,0
			c0,0.1,0,0.2-0.1,0.2c-0.7,1.9-1.4,3.7-2.1,5.6C93.4,36.8,93.3,36.8,93,36.7z"/>
		<path class="st1" d="M90.9,35.8c0.1-1.6,0.2-3.1,0.3-4.7c0-0.4,0-0.3,0.3-0.3c0.2,0,0.4,0,0.5,0c0.1,0,0.2,0,0.1,0.2
			c-0.1,0.5-0.2,1.1-0.3,1.6c-0.2,1-0.3,2-0.5,3.1c-0.1,0.3-0.1,0.6-0.2,1c0,0.2-0.2,0.1-0.3,0.2c-0.2,0-0.1-0.1-0.1-0.2
			C90.9,36.3,90.9,36.1,90.9,35.8C90.9,35.8,90.9,35.8,90.9,35.8z"/>
		<path class="st1" d="M89.1,35.8c0,0.3,0,0.5,0,0.8c0,0.1,0.1,0.2-0.1,0.2c-0.1,0-0.3,0-0.3-0.2c-0.1-0.6-0.2-1.1-0.3-1.7
			c-0.2-1.3-0.4-2.6-0.6-3.8c-0.1-0.3-0.1-0.3,0.3-0.3c0.2,0,0.4,0,0.5,0c0.1,0,0.2,0,0.2,0.2c0,0.7,0.1,1.4,0.1,2.1
			C89,34,89,34.9,89.1,35.8C89.1,35.8,89.1,35.8,89.1,35.8z"/>
		<path class="st1" d="M84.4,30.8c0.3,0,0.7,0,1,0c0,0,0.1,0.1,0.1,0.1c0.2,0.8,0.4,1.6,0.6,2.3c0.3,1.1,0.5,2.1,0.8,3.2
			c0,0.1,0,0.1,0,0.2c0,0,0,0.1,0,0.1c-0.1,0-0.2,0-0.2-0.1c-0.1-0.1-0.1-0.2-0.1-0.3c-0.7-1.8-1.4-3.6-2.1-5.4
			C84.4,30.9,84.4,30.9,84.4,30.8z"/>
		<path class="st1" d="M86.2,30.8c0.3,0,0.6,0,0.8,0c0,0,0.1,0.1,0.1,0.1c0.1,0.6,0.2,1.1,0.3,1.7c0.2,1,0.3,2.1,0.5,3.1
			c0.1,0.3,0.1,0.6,0.1,0.9c0,0.1,0.1,0.2-0.1,0.2c-0.1,0-0.3,0.1-0.3-0.1c-0.1-0.2-0.1-0.5-0.2-0.7c-0.4-1.4-0.7-2.8-1.1-4.1
			C86.3,31.5,86.2,31.2,86.2,30.8z"/>
		<path class="st1" d="M93.4,30.8c0.5,0,0.5,0,0.3,0.4c-0.4,1.6-0.8,3.2-1.2,4.9c0,0.2-0.1,0.4-0.1,0.6c0,0.2-0.2,0.1-0.3,0.1
			c-0.1,0-0.1-0.1-0.1-0.2c0.1-0.8,0.3-1.5,0.4-2.3c0.2-1.1,0.4-2.2,0.6-3.3c0-0.2,0.1-0.3,0.3-0.2C93.3,30.8,93.3,30.8,93.4,30.8z"
			/>
	</g>
</g>
<g id="io8pn5.tif_2_">
	<g>
		<path class="st0" d="M143,29.9c0.7,0,1.4,0,2.1,0c-0.1-0.3-0.2-0.5-0.3-0.8c-0.3-1.4,0.5-2.8,1.9-3.2c0.2-0.1,0.4-0.1,0.5-0.1
			c0,0,0.1-0.1,0.1-0.1c-0.1-0.8,0.3-1.4,1-1.8c0.4-0.2,0.8-0.5,1.2-0.7c0.2-0.1,0.4-0.3,0.6-0.5c0.3-0.3,0.3-0.7,0-1
			c-0.1-0.1-0.1-0.2-0.2-0.3c0.1,0,0.2,0.1,0.3,0.1c1.1,0.5,2,1.2,2.7,2.1c0.6,0.9,0.7,1.9,0.2,2.9c0,0,0,0.1,0,0.1
			c0.2,0.1,0.3,0.1,0.5,0.2c1.2,0.4,1.7,1.8,1.3,2.9c-0.1,0.2-0.1,0.2,0.1,0.2c0.5,0,1,0,1.4,0c0.1,0,0.1,0,0.2,0
			c-0.1,0.3-0.2,0.6-0.3,0.9c-0.8,2.2-1.6,4.4-2.4,6.6c-0.1,0.2-0.1,0.2-0.3,0.2c-2.5,0-4.9,0-7.4,0c-0.2,0-0.2-0.1-0.3-0.2
			c-0.7-1.8-1.5-3.7-2.2-5.5C143.5,31.3,143.3,30.6,143,29.9z M149.4,32.6C149.4,32.6,149.4,32.6,149.4,32.6
			c0.1,1.3,0.2,2.6,0.2,3.9c0,0.2,0.1,0.2,0.2,0.2c0.1,0,0.2-0.1,0.2-0.2c0.1-1.1,0.1-2.2,0.2-3.4c0-0.7,0.1-1.5,0.1-2.2
			c0-0.2,0-0.2-0.2-0.2c-0.2,0-0.5,0-0.7,0c-0.1,0-0.2,0-0.2,0.2C149.4,31.5,149.4,32.1,149.4,32.6z M152.9,36.7
			c0.3,0.1,0.4,0.1,0.5-0.2c0.7-1.9,1.4-3.7,2.1-5.6c0-0.1,0-0.1,0.1-0.2c-0.3,0-0.6,0-0.9,0c-0.2,0-0.2,0.1-0.3,0.2
			c-0.4,1.7-0.9,3.4-1.3,5.1C153,36.3,153,36.5,152.9,36.7z M150.8,35.8C150.8,35.8,150.8,35.8,150.8,35.8c0,0.2,0,0.5,0,0.7
			c0,0.1,0,0.2,0.1,0.2c0.1,0,0.2,0,0.3-0.2c0-0.3,0.1-0.6,0.2-1c0.2-1,0.3-2,0.5-3.1c0.1-0.5,0.2-1.1,0.3-1.6c0-0.1,0-0.2-0.1-0.2
			c-0.2,0-0.4,0-0.5,0c-0.3,0-0.3-0.1-0.3,0.3C151,32.7,150.9,34.3,150.8,35.8z M149,35.8C148.9,35.8,148.9,35.8,149,35.8
			c-0.1-0.9-0.1-1.8-0.2-2.7c0-0.7-0.1-1.4-0.1-2.1c0-0.1-0.1-0.2-0.2-0.2c-0.2,0-0.4,0-0.5,0c-0.3,0-0.3,0-0.3,0.3
			c0.2,1.3,0.4,2.6,0.6,3.8c0.1,0.6,0.2,1.1,0.3,1.7c0,0.2,0.2,0.2,0.3,0.2c0.2,0,0.1-0.1,0.1-0.2C149,36.3,149,36.1,149,35.8z
			 M144.3,30.8c0,0.1,0,0.1,0.1,0.2c0.7,1.8,1.4,3.6,2.1,5.4c0,0.1,0.1,0.2,0.1,0.3c0,0,0.1,0,0.2,0.1c0,0,0-0.1,0-0.1
			c0-0.1,0-0.1,0-0.2c-0.3-1.1-0.5-2.1-0.8-3.2c-0.2-0.8-0.4-1.6-0.6-2.3c0-0.1-0.1-0.1-0.1-0.1C144.9,30.8,144.6,30.8,144.3,30.8z
			 M146,30.8c0.1,0.4,0.2,0.7,0.3,1c0.4,1.4,0.7,2.8,1.1,4.1c0.1,0.2,0.1,0.5,0.2,0.7c0,0.2,0.2,0.1,0.3,0.1c0.1,0,0.1-0.1,0.1-0.2
			c0-0.3-0.1-0.6-0.1-0.9c-0.2-1-0.3-2.1-0.5-3.1c-0.1-0.6-0.2-1.1-0.3-1.7c0-0.1-0.1-0.1-0.1-0.1C146.6,30.8,146.3,30.8,146,30.8z
			 M153.3,30.8c-0.1,0-0.1,0-0.2,0c-0.2,0-0.3,0-0.3,0.2c-0.2,1.1-0.4,2.2-0.6,3.3c-0.1,0.8-0.3,1.5-0.4,2.3c0,0.1-0.1,0.2,0.1,0.2
			c0.1,0,0.3,0.1,0.3-0.1c0-0.2,0.1-0.4,0.1-0.6c0.4-1.6,0.8-3.2,1.2-4.9C153.7,30.8,153.7,30.8,153.3,30.8z"/>
		<path class="st1" d="M149.4,32.6c0-0.6-0.1-1.1-0.1-1.7c0-0.2,0-0.2,0.2-0.2c0.2,0,0.5,0,0.7,0c0.2,0,0.2,0,0.2,0.2
			c0,0.7-0.1,1.5-0.1,2.2c-0.1,1.1-0.1,2.2-0.2,3.4c0,0.1-0.1,0.2-0.2,0.2c-0.2,0-0.2,0-0.2-0.2C149.6,35.3,149.5,33.9,149.4,32.6
			C149.4,32.6,149.4,32.6,149.4,32.6z"/>
		<path class="st1" d="M152.9,36.7c0.1-0.2,0.1-0.4,0.2-0.6c0.4-1.7,0.9-3.4,1.3-5.1c0-0.2,0.1-0.2,0.3-0.2c0.3,0,0.6,0,0.9,0
			c0,0.1,0,0.2-0.1,0.2c-0.7,1.9-1.4,3.7-2.1,5.6C153.3,36.8,153.2,36.8,152.9,36.7z"/>
		<path class="st1" d="M150.8,35.8c0.1-1.6,0.2-3.1,0.3-4.7c0-0.4,0-0.3,0.3-0.3c0.2,0,0.4,0,0.5,0c0.1,0,0.2,0,0.1,0.2
			c-0.1,0.5-0.2,1.1-0.3,1.6c-0.2,1-0.3,2-0.5,3.1c-0.1,0.3-0.1,0.6-0.2,1c0,0.2-0.2,0.1-0.3,0.2c-0.2,0-0.1-0.1-0.1-0.2
			C150.8,36.3,150.8,36.1,150.8,35.8C150.8,35.8,150.8,35.8,150.8,35.8z"/>
		<path class="st1" d="M149,35.8c0,0.3,0,0.5,0,0.8c0,0.1,0.1,0.2-0.1,0.2c-0.1,0-0.3,0-0.3-0.2c-0.1-0.6-0.2-1.1-0.3-1.7
			c-0.2-1.3-0.4-2.6-0.6-3.8c-0.1-0.3-0.1-0.3,0.3-0.3c0.2,0,0.4,0,0.5,0c0.1,0,0.2,0,0.2,0.2c0,0.7,0.1,1.4,0.1,2.1
			C148.8,34,148.9,34.9,149,35.8C148.9,35.8,148.9,35.8,149,35.8z"/>
		<path class="st1" d="M144.3,30.8c0.4,0,0.7,0,1,0c0,0,0.1,0.1,0.1,0.1c0.2,0.8,0.4,1.6,0.6,2.3c0.3,1.1,0.5,2.1,0.8,3.2
			c0,0.1,0,0.1,0,0.2c0,0,0,0.1,0,0.1c-0.1,0-0.2,0-0.2-0.1c-0.1-0.1-0.1-0.2-0.1-0.3c-0.7-1.8-1.4-3.6-2.1-5.4
			C144.3,30.9,144.3,30.9,144.3,30.8z"/>
		<path class="st1" d="M146,30.8c0.3,0,0.6,0,0.8,0c0,0,0.1,0.1,0.1,0.1c0.1,0.6,0.2,1.1,0.3,1.7c0.2,1,0.3,2.1,0.5,3.1
			c0.1,0.3,0.1,0.6,0.1,0.9c0,0.1,0.1,0.2-0.1,0.2c-0.1,0-0.3,0.1-0.3-0.1c-0.1-0.2-0.1-0.5-0.2-0.7c-0.4-1.4-0.7-2.8-1.1-4.1
			C146.2,31.5,146.1,31.2,146,30.8z"/>
		<path class="st1" d="M153.3,30.8c0.5,0,0.5,0,0.3,0.4c-0.4,1.6-0.8,3.2-1.2,4.9c0,0.2-0.1,0.4-0.1,0.6c0,0.2-0.2,0.1-0.3,0.1
			c-0.1,0-0.1-0.1-0.1-0.2c0.1-0.8,0.3-1.5,0.4-2.3c0.2-1.1,0.4-2.2,0.6-3.3c0-0.2,0.1-0.3,0.3-0.2
			C153.2,30.8,153.2,30.8,153.3,30.8z"/>
	</g>
</g>
<g id="io8pn5.tif_3_">
	<g>
		<path class="st0" d="M203.1,29.9c0.7,0,1.4,0,2.1,0c-0.1-0.3-0.2-0.5-0.3-0.8c-0.3-1.4,0.5-2.8,1.9-3.2c0.2-0.1,0.4-0.1,0.5-0.1
			c0,0,0.1-0.1,0.1-0.1c-0.1-0.8,0.3-1.4,1-1.8c0.4-0.2,0.8-0.5,1.2-0.7c0.2-0.1,0.4-0.3,0.6-0.5c0.3-0.3,0.3-0.7,0-1
			c-0.1-0.1-0.1-0.2-0.2-0.3c0.1,0,0.2,0.1,0.3,0.1c1.1,0.5,2,1.2,2.7,2.1c0.6,0.9,0.7,1.9,0.2,2.9c0,0,0,0.1,0,0.1
			c0.2,0.1,0.3,0.1,0.5,0.2c1.2,0.4,1.7,1.8,1.3,2.9c-0.1,0.2-0.1,0.2,0.1,0.2c0.5,0,1,0,1.4,0c0.1,0,0.1,0,0.2,0
			c-0.1,0.3-0.2,0.6-0.3,0.9c-0.8,2.2-1.6,4.4-2.4,6.6c-0.1,0.2-0.1,0.2-0.3,0.2c-2.5,0-4.9,0-7.4,0c-0.2,0-0.2-0.1-0.3-0.2
			c-0.7-1.8-1.5-3.7-2.2-5.5C203.6,31.3,203.4,30.6,203.1,29.9z M209.6,32.6C209.6,32.6,209.6,32.6,209.6,32.6
			c0.1,1.3,0.2,2.6,0.2,3.9c0,0.2,0.1,0.2,0.2,0.2c0.1,0,0.2-0.1,0.2-0.2c0.1-1.1,0.1-2.2,0.2-3.4c0-0.7,0.1-1.5,0.1-2.2
			c0-0.2,0-0.2-0.2-0.2c-0.2,0-0.5,0-0.7,0c-0.1,0-0.2,0-0.2,0.2C209.5,31.5,209.5,32.1,209.6,32.6z M213,36.7
			c0.3,0.1,0.4,0.1,0.5-0.2c0.7-1.9,1.4-3.7,2.1-5.6c0-0.1,0-0.1,0.1-0.2c-0.3,0-0.6,0-0.9,0c-0.2,0-0.2,0.1-0.3,0.2
			c-0.4,1.7-0.9,3.4-1.3,5.1C213.1,36.3,213.1,36.5,213,36.7z M210.9,35.8C210.9,35.8,210.9,35.8,210.9,35.8c0,0.2,0,0.5,0,0.7
			c0,0.1,0,0.2,0.1,0.2c0.1,0,0.2,0,0.3-0.2c0-0.3,0.1-0.6,0.2-1c0.2-1,0.3-2,0.5-3.1c0.1-0.5,0.2-1.1,0.3-1.6c0-0.1,0-0.2-0.1-0.2
			c-0.2,0-0.4,0-0.5,0c-0.3,0-0.3-0.1-0.3,0.3C211.1,32.7,211,34.3,210.9,35.8z M209.1,35.8C209.1,35.8,209.1,35.8,209.1,35.8
			c-0.1-0.9-0.1-1.8-0.2-2.7c0-0.7-0.1-1.4-0.1-2.1c0-0.1-0.1-0.2-0.2-0.2c-0.2,0-0.4,0-0.5,0c-0.3,0-0.3,0-0.3,0.3
			c0.2,1.3,0.4,2.6,0.6,3.8c0.1,0.6,0.2,1.1,0.3,1.7c0,0.2,0.2,0.2,0.3,0.2c0.2,0,0.1-0.1,0.1-0.2C209.1,36.3,209.1,36.1,209.1,35.8
			z M204.4,30.8c0,0.1,0,0.1,0.1,0.2c0.7,1.8,1.4,3.6,2.1,5.4c0,0.1,0.1,0.2,0.1,0.3c0,0,0.1,0,0.2,0.1c0,0,0-0.1,0-0.1
			c0-0.1,0-0.1,0-0.2c-0.3-1.1-0.5-2.1-0.8-3.2c-0.2-0.8-0.4-1.6-0.6-2.3c0-0.1-0.1-0.1-0.1-0.1C205.1,30.8,204.7,30.8,204.4,30.8z
			 M206.2,30.8c0.1,0.4,0.2,0.7,0.3,1c0.4,1.4,0.7,2.8,1.1,4.1c0.1,0.2,0.1,0.5,0.2,0.7c0,0.2,0.2,0.1,0.3,0.1
			c0.1,0,0.1-0.1,0.1-0.2c0-0.3-0.1-0.6-0.1-0.9c-0.2-1-0.3-2.1-0.5-3.1c-0.1-0.6-0.2-1.1-0.3-1.7c0-0.1-0.1-0.1-0.1-0.1
			C206.7,30.8,206.5,30.8,206.2,30.8z M213.4,30.8c-0.1,0-0.1,0-0.2,0c-0.2,0-0.3,0-0.3,0.2c-0.2,1.1-0.4,2.2-0.6,3.3
			c-0.1,0.8-0.3,1.5-0.4,2.3c0,0.1-0.1,0.2,0.1,0.2c0.1,0,0.3,0.1,0.3-0.1c0-0.2,0.1-0.4,0.1-0.6c0.4-1.6,0.8-3.2,1.2-4.9
			C213.9,30.8,213.8,30.8,213.4,30.8z"/>
		<path class="st1" d="M209.6,32.6c0-0.6-0.1-1.1-0.1-1.7c0-0.2,0-0.2,0.2-0.2c0.2,0,0.5,0,0.7,0c0.2,0,0.2,0,0.2,0.2
			c0,0.7-0.1,1.5-0.1,2.2c-0.1,1.1-0.1,2.2-0.2,3.4c0,0.1-0.1,0.2-0.2,0.2c-0.2,0-0.2,0-0.2-0.2C209.7,35.3,209.6,33.9,209.6,32.6
			C209.6,32.6,209.6,32.6,209.6,32.6z"/>
		<path class="st1" d="M213,36.7c0.1-0.2,0.1-0.4,0.2-0.6c0.4-1.7,0.9-3.4,1.3-5.1c0-0.2,0.1-0.2,0.3-0.2c0.3,0,0.6,0,0.9,0
			c0,0.1,0,0.2-0.1,0.2c-0.7,1.9-1.4,3.7-2.1,5.6C213.4,36.8,213.3,36.8,213,36.7z"/>
		<path class="st1" d="M210.9,35.8c0.1-1.6,0.2-3.1,0.3-4.7c0-0.4,0-0.3,0.3-0.3c0.2,0,0.4,0,0.5,0c0.1,0,0.2,0,0.1,0.2
			c-0.1,0.5-0.2,1.1-0.3,1.6c-0.2,1-0.3,2-0.5,3.1c-0.1,0.3-0.1,0.6-0.2,1c0,0.2-0.2,0.1-0.3,0.2c-0.2,0-0.1-0.1-0.1-0.2
			C210.9,36.3,210.9,36.1,210.9,35.8C210.9,35.8,210.9,35.8,210.9,35.8z"/>
		<path class="st1" d="M209.1,35.8c0,0.3,0,0.5,0,0.8c0,0.1,0.1,0.2-0.1,0.2c-0.1,0-0.3,0-0.3-0.2c-0.1-0.6-0.2-1.1-0.3-1.7
			c-0.2-1.3-0.4-2.6-0.6-3.8c-0.1-0.3-0.1-0.3,0.3-0.3c0.2,0,0.4,0,0.5,0c0.1,0,0.2,0,0.2,0.2c0,0.7,0.1,1.4,0.1,2.1
			C209,34,209,34.9,209.1,35.8C209.1,35.8,209.1,35.8,209.1,35.8z"/>
		<path class="st1" d="M204.4,30.8c0.4,0,0.7,0,1,0c0,0,0.1,0.1,0.1,0.1c0.2,0.8,0.4,1.6,0.6,2.3c0.3,1.1,0.5,2.1,0.8,3.2
			c0,0.1,0,0.1,0,0.2c0,0,0,0.1,0,0.1c-0.1,0-0.2,0-0.2-0.1c-0.1-0.1-0.1-0.2-0.1-0.3c-0.7-1.8-1.4-3.6-2.1-5.4
			C204.4,30.9,204.4,30.9,204.4,30.8z"/>
		<path class="st1" d="M206.2,30.8c0.3,0,0.6,0,0.8,0c0,0,0.1,0.1,0.1,0.1c0.1,0.6,0.2,1.1,0.3,1.7c0.2,1,0.3,2.1,0.5,3.1
			c0.1,0.3,0.1,0.6,0.1,0.9c0,0.1,0.1,0.2-0.1,0.2c-0.1,0-0.3,0.1-0.3-0.1c-0.1-0.2-0.1-0.5-0.2-0.7c-0.4-1.4-0.7-2.8-1.1-4.1
			C206.3,31.5,206.2,31.2,206.2,30.8z"/>
		<path class="st1" d="M213.4,30.8c0.5,0,0.5,0,0.3,0.4c-0.4,1.6-0.8,3.2-1.2,4.9c0,0.2-0.1,0.4-0.1,0.6c0,0.2-0.2,0.1-0.3,0.1
			c-0.1,0-0.1-0.1-0.1-0.2c0.1-0.8,0.3-1.5,0.4-2.3c0.2-1.1,0.4-2.2,0.6-3.3c0-0.2,0.1-0.3,0.3-0.2
			C213.3,30.8,213.3,30.8,213.4,30.8z"/>
	</g>
</g>
<g id="io8pn5.tif_4_">
	<g>
		<path class="st2" d="M23.1,90.4c0.7,0,1.4,0,2.1,0c-0.1-0.3-0.2-0.5-0.3-0.8c-0.3-1.4,0.5-2.8,1.9-3.2c0.2-0.1,0.4-0.1,0.5-0.1
			c0,0,0.1-0.1,0.1-0.1c-0.1-0.8,0.3-1.4,1-1.8c0.4-0.2,0.8-0.5,1.2-0.7c0.2-0.1,0.4-0.3,0.6-0.5c0.3-0.3,0.3-0.7,0-1
			c-0.1-0.1-0.1-0.2-0.2-0.3c0.1,0,0.2,0.1,0.3,0.1c1.1,0.5,2,1.2,2.7,2.1c0.6,0.9,0.7,1.9,0.2,2.9c0,0,0,0.1,0,0.1
			c0.2,0.1,0.3,0.1,0.5,0.2c1.2,0.4,1.7,1.8,1.3,2.9c-0.1,0.2-0.1,0.2,0.1,0.2c0.5,0,1,0,1.4,0c0.1,0,0.1,0,0.2,0
			c-0.1,0.3-0.2,0.6-0.3,0.9c-0.8,2.2-1.6,4.4-2.4,6.6c-0.1,0.2-0.1,0.2-0.3,0.2c-2.5,0-4.9,0-7.4,0c-0.2,0-0.2-0.1-0.3-0.2
			c-0.7-1.8-1.5-3.7-2.2-5.5C23.6,91.8,23.4,91.1,23.1,90.4z M29.6,93.1C29.6,93.1,29.6,93.1,29.6,93.1c0.1,1.3,0.2,2.6,0.2,3.9
			c0,0.2,0.1,0.2,0.2,0.2c0.1,0,0.2-0.1,0.2-0.2c0.1-1.1,0.1-2.2,0.2-3.4c0-0.7,0.1-1.5,0.1-2.2c0-0.2,0-0.2-0.2-0.2
			c-0.2,0-0.5,0-0.7,0c-0.1,0-0.2,0-0.2,0.2C29.5,92,29.5,92.6,29.6,93.1z M33,97.2c0.3,0.1,0.4,0.1,0.5-0.2
			c0.7-1.9,1.4-3.7,2.1-5.6c0-0.1,0-0.1,0.1-0.2c-0.3,0-0.6,0-0.9,0c-0.2,0-0.2,0.1-0.3,0.2c-0.4,1.7-0.9,3.4-1.3,5.1
			C33.1,96.8,33.1,97,33,97.2z M30.9,96.3C30.9,96.3,30.9,96.3,30.9,96.3c0,0.2,0,0.5,0,0.7c0,0.1,0,0.2,0.1,0.2
			c0.1,0,0.2,0,0.3-0.2c0-0.3,0.1-0.6,0.2-1c0.2-1,0.3-2,0.5-3.1c0.1-0.5,0.2-1.1,0.3-1.6c0-0.1,0-0.2-0.1-0.2c-0.2,0-0.4,0-0.5,0
			c-0.3,0-0.3-0.1-0.3,0.3C31.1,93.2,31,94.8,30.9,96.3z M29.1,96.3C29.1,96.3,29.1,96.3,29.1,96.3c-0.1-0.9-0.1-1.8-0.2-2.7
			c0-0.7-0.1-1.4-0.1-2.1c0-0.1-0.1-0.2-0.2-0.2c-0.2,0-0.4,0-0.5,0c-0.3,0-0.3,0-0.3,0.3c0.2,1.3,0.4,2.6,0.6,3.8
			c0.1,0.6,0.2,1.1,0.3,1.7c0,0.2,0.2,0.2,0.3,0.2c0.2,0,0.1-0.1,0.1-0.2C29.1,96.8,29.1,96.6,29.1,96.3z M24.4,91.3
			c0,0.1,0,0.1,0.1,0.2c0.7,1.8,1.4,3.6,2.1,5.4c0,0.1,0.1,0.2,0.1,0.3c0,0,0.1,0,0.2,0.1c0,0,0-0.1,0-0.1c0-0.1,0-0.1,0-0.2
			c-0.3-1.1-0.5-2.1-0.8-3.2c-0.2-0.8-0.4-1.6-0.6-2.3c0-0.1-0.1-0.1-0.1-0.1C25.1,91.3,24.7,91.3,24.4,91.3z M26.2,91.3
			c0.1,0.4,0.2,0.7,0.3,1c0.4,1.4,0.7,2.8,1.1,4.1c0.1,0.2,0.1,0.5,0.2,0.7c0,0.2,0.2,0.1,0.3,0.1c0.1,0,0.1-0.1,0.1-0.2
			c0-0.3-0.1-0.6-0.1-0.9c-0.2-1-0.3-2.1-0.5-3.1c-0.1-0.6-0.2-1.1-0.3-1.7c0-0.1-0.1-0.1-0.1-0.1C26.7,91.3,26.5,91.3,26.2,91.3z
			 M33.4,91.3c-0.1,0-0.1,0-0.2,0c-0.2,0-0.3,0-0.3,0.2c-0.2,1.1-0.4,2.2-0.6,3.3c-0.1,0.8-0.3,1.5-0.4,2.3c0,0.1-0.1,0.2,0.1,0.2
			c0.1,0,0.3,0.1,0.3-0.1c0-0.2,0.1-0.4,0.1-0.6c0.4-1.6,0.8-3.2,1.2-4.9C33.9,91.3,33.8,91.3,33.4,91.3z"/>
		<path class="st1" d="M29.6,93.1c0-0.6-0.1-1.1-0.1-1.7c0-0.2,0-0.2,0.2-0.2c0.2,0,0.5,0,0.7,0c0.2,0,0.2,0,0.2,0.2
			c0,0.7-0.1,1.5-0.1,2.2c-0.1,1.1-0.1,2.2-0.2,3.4c0,0.1-0.1,0.2-0.2,0.2c-0.2,0-0.2,0-0.2-0.2C29.7,95.8,29.6,94.4,29.6,93.1
			C29.6,93.1,29.6,93.1,29.6,93.1z"/>
		<path class="st1" d="M33,97.2c0.1-0.2,0.1-0.4,0.2-0.6c0.4-1.7,0.9-3.4,1.3-5.1c0-0.2,0.1-0.2,0.3-0.2c0.3,0,0.6,0,0.9,0
			c0,0.1,0,0.2-0.1,0.2c-0.7,1.9-1.4,3.7-2.1,5.6C33.4,97.3,33.3,97.3,33,97.2z"/>
		<path class="st1" d="M30.9,96.3c0.1-1.6,0.2-3.1,0.3-4.7c0-0.4,0-0.3,0.3-0.3c0.2,0,0.4,0,0.5,0c0.1,0,0.2,0,0.1,0.2
			c-0.1,0.5-0.2,1.1-0.3,1.6c-0.2,1-0.3,2-0.5,3.1c-0.1,0.3-0.1,0.6-0.2,1c0,0.2-0.2,0.1-0.3,0.2c-0.2,0-0.1-0.1-0.1-0.2
			C30.9,96.8,30.9,96.6,30.9,96.3C30.9,96.3,30.9,96.3,30.9,96.3z"/>
		<path class="st1" d="M29.1,96.3c0,0.3,0,0.5,0,0.8c0,0.1,0.1,0.2-0.1,0.2c-0.1,0-0.3,0-0.3-0.2c-0.1-0.6-0.2-1.1-0.3-1.7
			c-0.2-1.3-0.4-2.6-0.6-3.8c-0.1-0.3-0.1-0.3,0.3-0.3c0.2,0,0.4,0,0.5,0c0.1,0,0.2,0,0.2,0.2c0,0.7,0.1,1.4,0.1,2.1
			C29,94.5,29,95.4,29.1,96.3C29.1,96.3,29.1,96.3,29.1,96.3z"/>
		<path class="st1" d="M24.4,91.3c0.4,0,0.7,0,1,0c0,0,0.1,0.1,0.1,0.1c0.2,0.8,0.4,1.6,0.6,2.3c0.3,1.1,0.5,2.1,0.8,3.2
			c0,0.1,0,0.1,0,0.2c0,0,0,0.1,0,0.1c-0.1,0-0.2,0-0.2-0.1c-0.1-0.1-0.1-0.2-0.1-0.3c-0.7-1.8-1.4-3.6-2.1-5.4
			C24.4,91.4,24.4,91.4,24.4,91.3z"/>
		<path class="st1" d="M26.2,91.3c0.3,0,0.6,0,0.8,0c0,0,0.1,0.1,0.1,0.1c0.1,0.6,0.2,1.1,0.3,1.7c0.2,1,0.3,2.1,0.5,3.1
			c0.1,0.3,0.1,0.6,0.1,0.9c0,0.1,0.1,0.2-0.1,0.2c-0.1,0-0.3,0.1-0.3-0.1c-0.1-0.2-0.1-0.5-0.2-0.7c-0.4-1.4-0.7-2.8-1.1-4.1
			C26.3,92,26.2,91.7,26.2,91.3z"/>
		<path class="st1" d="M33.4,91.3c0.5,0,0.5,0,0.3,0.4c-0.4,1.6-0.8,3.2-1.2,4.9c0,0.2-0.1,0.4-0.1,0.6c0,0.2-0.2,0.1-0.3,0.1
			c-0.1,0-0.1-0.1-0.1-0.2c0.1-0.8,0.3-1.5,0.4-2.3c0.2-1.1,0.4-2.2,0.6-3.3c0-0.2,0.1-0.3,0.3-0.2C33.3,91.3,33.3,91.3,33.4,91.3z"
			/>
	</g>
</g>
<path class="st2" d="M83.1,90.4c0.7,0,1.4,0,2.1,0c-0.1-0.3-0.2-0.5-0.3-0.8c-0.3-1.4,0.5-2.8,1.9-3.2c0.2-0.1,0.4-0.1,0.5-0.1
	c0,0,0.1-0.1,0.1-0.1c-0.1-0.8,0.3-1.4,1-1.8c0.4-0.2,0.8-0.5,1.2-0.7c0.2-0.1,0.4-0.3,0.6-0.5c0.3-0.3,0.3-0.7,0-1
	c-0.1-0.1-0.1-0.2-0.2-0.3c0.1,0,0.2,0.1,0.3,0.1c1.1,0.5,2,1.2,2.7,2.1c0.6,0.9,0.7,1.9,0.2,2.9c0,0,0,0.1,0,0.1
	c0.2,0.1,0.3,0.1,0.5,0.2c1.2,0.4,1.7,1.8,1.3,2.9c-0.1,0.2-0.1,0.2,0.1,0.2c0.5,0,1,0,1.4,0c0.1,0,0.1,0,0.2,0
	c-0.1,0.3-0.2,0.6-0.3,0.9c-0.8,2.2-1.6,4.4-2.4,6.6c-0.1,0.2-0.1,0.2-0.3,0.2c-2.5,0-4.9,0-7.4,0c-0.2,0-0.2-0.1-0.3-0.2
	c-0.7-1.8-1.5-3.7-2.2-5.5C83.6,91.8,83.4,91.1,83.1,90.4z M89.6,93.1C89.6,93.1,89.6,93.1,89.6,93.1c0.1,1.3,0.2,2.6,0.2,3.9
	c0,0.2,0.1,0.2,0.2,0.2c0.1,0,0.2-0.1,0.2-0.2c0.1-1.1,0.1-2.2,0.2-3.4c0-0.7,0.1-1.5,0.1-2.2c0-0.2,0-0.2-0.2-0.2
	c-0.2,0-0.5,0-0.7,0c-0.1,0-0.2,0-0.2,0.2C89.5,92,89.5,92.6,89.6,93.1z M93,97.2c0.3,0.1,0.4,0.1,0.5-0.2c0.7-1.9,1.4-3.7,2.1-5.6
	c0-0.1,0-0.1,0.1-0.2c-0.3,0-0.6,0-0.9,0c-0.2,0-0.2,0.1-0.3,0.2c-0.4,1.7-0.9,3.4-1.3,5.1C93.1,96.8,93.1,97,93,97.2z M90.9,96.3
	C90.9,96.3,90.9,96.3,90.9,96.3c0,0.2,0,0.5,0,0.7c0,0.1,0,0.2,0.1,0.2c0.1,0,0.2,0,0.3-0.2c0-0.3,0.1-0.6,0.2-1
	c0.2-1,0.3-2,0.5-3.1c0.1-0.5,0.2-1.1,0.3-1.6c0-0.1,0-0.2-0.1-0.2c-0.2,0-0.4,0-0.5,0c-0.3,0-0.3-0.1-0.3,0.3
	C91.1,93.2,91,94.8,90.9,96.3z M89.1,96.3C89.1,96.3,89.1,96.3,89.1,96.3c-0.1-0.9-0.1-1.8-0.2-2.7c0-0.7-0.1-1.4-0.1-2.1
	c0-0.1-0.1-0.2-0.2-0.2c-0.2,0-0.4,0-0.5,0c-0.3,0-0.3,0-0.3,0.3c0.2,1.3,0.4,2.6,0.6,3.8c0.1,0.6,0.2,1.1,0.3,1.7
	c0,0.2,0.2,0.2,0.3,0.2c0.2,0,0.1-0.1,0.1-0.2C89.1,96.8,89.1,96.6,89.1,96.3z M84.4,91.3c0,0.1,0,0.1,0.1,0.2
	c0.7,1.8,1.4,3.6,2.1,5.4c0,0.1,0.1,0.2,0.1,0.3c0,0,0.1,0,0.2,0.1c0,0,0-0.1,0-0.1c0-0.1,0-0.1,0-0.2c-0.3-1.1-0.5-2.1-0.8-3.2
	c-0.2-0.8-0.4-1.6-0.6-2.3c0-0.1-0.1-0.1-0.1-0.1C85.1,91.3,84.7,91.3,84.4,91.3z M86.2,91.3c0.1,0.4,0.2,0.7,0.3,1
	c0.4,1.4,0.7,2.8,1.1,4.1c0.1,0.2,0.1,0.5,0.2,0.7c0,0.2,0.2,0.1,0.3,0.1c0.1,0,0.1-0.1,0.1-0.2c0-0.3-0.1-0.6-0.1-0.9
	c-0.2-1-0.3-2.1-0.5-3.1c-0.1-0.6-0.2-1.1-0.3-1.7c0-0.1-0.1-0.1-0.1-0.1C86.7,91.3,86.5,91.3,86.2,91.3z M93.4,91.3
	c-0.1,0-0.1,0-0.2,0c-0.2,0-0.3,0-0.3,0.2c-0.2,1.1-0.4,2.2-0.6,3.3c-0.1,0.8-0.3,1.5-0.4,2.3c0,0.1-0.1,0.2,0.1,0.2
	c0.1,0,0.3,0.1,0.3-0.1c0-0.2,0.1-0.4,0.1-0.6c0.4-1.6,0.8-3.2,1.2-4.9C93.9,91.3,93.8,91.3,93.4,91.3z"/>
<path class="st2" d="M143,90.4c0.7,0,1.4,0,2.1,0c-0.1-0.3-0.2-0.5-0.3-0.8c-0.3-1.4,0.5-2.8,1.9-3.2c0.2-0.1,0.4-0.1,0.5-0.1
	c0,0,0.1-0.1,0.1-0.1c-0.1-0.8,0.3-1.4,1-1.8c0.4-0.2,0.8-0.5,1.2-0.7c0.2-0.1,0.4-0.3,0.6-0.5c0.3-0.3,0.3-0.7,0-1
	c-0.1-0.1-0.1-0.2-0.2-0.3c0.1,0,0.2,0.1,0.3,0.1c1.1,0.5,2,1.2,2.7,2.1c0.6,0.9,0.7,1.9,0.2,2.9c0,0,0,0.1,0,0.1
	c0.2,0.1,0.3,0.1,0.5,0.2c1.2,0.4,1.7,1.8,1.3,2.9c-0.1,0.2-0.1,0.2,0.1,0.2c0.5,0,1,0,1.4,0c0.1,0,0.1,0,0.2,0
	c-0.1,0.3-0.2,0.6-0.3,0.9c-0.8,2.2-1.6,4.4-2.4,6.6c-0.1,0.2-0.1,0.2-0.3,0.2c-2.5,0-4.9,0-7.4,0c-0.2,0-0.2-0.1-0.3-0.2
	c-0.7-1.8-1.5-3.7-2.2-5.5C143.5,91.8,143.3,91.1,143,90.4z M149.4,93.1C149.4,93.1,149.4,93.1,149.4,93.1c0.1,1.3,0.2,2.6,0.2,3.9
	c0,0.2,0.1,0.2,0.2,0.2c0.1,0,0.2-0.1,0.2-0.2c0.1-1.1,0.1-2.2,0.2-3.4c0-0.7,0.1-1.5,0.1-2.2c0-0.2,0-0.2-0.2-0.2
	c-0.2,0-0.5,0-0.7,0c-0.1,0-0.2,0-0.2,0.2C149.4,92,149.4,92.6,149.4,93.1z M152.9,97.2c0.3,0.1,0.4,0.1,0.5-0.2
	c0.7-1.9,1.4-3.7,2.1-5.6c0-0.1,0-0.1,0.1-0.2c-0.3,0-0.6,0-0.9,0c-0.2,0-0.2,0.1-0.3,0.2c-0.4,1.7-0.9,3.4-1.3,5.1
	C153,96.8,153,97,152.9,97.2z M150.8,96.3C150.8,96.3,150.8,96.3,150.8,96.3c0,0.2,0,0.5,0,0.7c0,0.1,0,0.2,0.1,0.2
	c0.1,0,0.2,0,0.3-0.2c0-0.3,0.1-0.6,0.2-1c0.2-1,0.3-2,0.5-3.1c0.1-0.5,0.2-1.1,0.3-1.6c0-0.1,0-0.2-0.1-0.2c-0.2,0-0.4,0-0.5,0
	c-0.3,0-0.3-0.1-0.3,0.3C151,93.2,150.9,94.8,150.8,96.3z M149,96.3C148.9,96.3,148.9,96.3,149,96.3c-0.1-0.9-0.1-1.8-0.2-2.7
	c0-0.7-0.1-1.4-0.1-2.1c0-0.1-0.1-0.2-0.2-0.2c-0.2,0-0.4,0-0.5,0c-0.3,0-0.3,0-0.3,0.3c0.2,1.3,0.4,2.6,0.6,3.8
	c0.1,0.6,0.2,1.1,0.3,1.7c0,0.2,0.2,0.2,0.3,0.2c0.2,0,0.1-0.1,0.1-0.2C149,96.8,149,96.6,149,96.3z M144.3,91.3
	c0,0.1,0,0.1,0.1,0.2c0.7,1.8,1.4,3.6,2.1,5.4c0,0.1,0.1,0.2,0.1,0.3c0,0,0.1,0,0.2,0.1c0,0,0-0.1,0-0.1c0-0.1,0-0.1,0-0.2
	c-0.3-1.1-0.5-2.1-0.8-3.2c-0.2-0.8-0.4-1.6-0.6-2.3c0-0.1-0.1-0.1-0.1-0.1C144.9,91.3,144.6,91.3,144.3,91.3z M146,91.3
	c0.1,0.4,0.2,0.7,0.3,1c0.4,1.4,0.7,2.8,1.1,4.1c0.1,0.2,0.1,0.5,0.2,0.7c0,0.2,0.2,0.1,0.3,0.1c0.1,0,0.1-0.1,0.1-0.2
	c0-0.3-0.1-0.6-0.1-0.9c-0.2-1-0.3-2.1-0.5-3.1c-0.1-0.6-0.2-1.1-0.3-1.7c0-0.1-0.1-0.1-0.1-0.1C146.6,91.3,146.3,91.3,146,91.3z
	 M153.3,91.3c-0.1,0-0.1,0-0.2,0c-0.2,0-0.3,0-0.3,0.2c-0.2,1.1-0.4,2.2-0.6,3.3c-0.1,0.8-0.3,1.5-0.4,2.3c0,0.1-0.1,0.2,0.1,0.2
	c0.1,0,0.3,0.1,0.3-0.1c0-0.2,0.1-0.4,0.1-0.6c0.4-1.6,0.8-3.2,1.2-4.9C153.7,91.3,153.7,91.3,153.3,91.3z"/>
<path class="st2" d="M203.7,90.4c0.7,0,1.4,0,2.1,0c-0.1-0.3-0.2-0.5-0.3-0.8c-0.3-1.4,0.5-2.8,1.9-3.2c0.2-0.1,0.4-0.1,0.5-0.1
	c0,0,0.1-0.1,0.1-0.1c-0.1-0.8,0.3-1.4,1-1.8c0.4-0.2,0.8-0.5,1.2-0.7c0.2-0.1,0.4-0.3,0.6-0.5c0.3-0.3,0.3-0.7,0-1
	c-0.1-0.1-0.1-0.2-0.2-0.3c0.1,0,0.2,0.1,0.3,0.1c1.1,0.5,2,1.2,2.7,2.1c0.6,0.9,0.7,1.9,0.2,2.9c0,0,0,0.1,0,0.1
	c0.2,0.1,0.3,0.1,0.5,0.2c1.2,0.4,1.7,1.8,1.3,2.9c-0.1,0.2-0.1,0.2,0.1,0.2c0.5,0,1,0,1.4,0c0.1,0,0.1,0,0.2,0
	c-0.1,0.3-0.2,0.6-0.3,0.9c-0.8,2.2-1.6,4.4-2.4,6.6c-0.1,0.2-0.1,0.2-0.3,0.2c-2.5,0-4.9,0-7.4,0c-0.2,0-0.2-0.1-0.3-0.2
	c-0.7-1.8-1.5-3.7-2.2-5.5C204.2,91.8,204,91.1,203.7,90.4z M210.1,93.1C210.1,93.1,210.1,93.1,210.1,93.1c0.1,1.3,0.2,2.6,0.2,3.9
	c0,0.2,0.1,0.2,0.2,0.2c0.1,0,0.2-0.1,0.2-0.2c0.1-1.1,0.1-2.2,0.2-3.4c0-0.7,0.1-1.5,0.1-2.2c0-0.2,0-0.2-0.2-0.2
	c-0.2,0-0.5,0-0.7,0c-0.1,0-0.2,0-0.2,0.2C210,92,210.1,92.6,210.1,93.1z M213.6,97.2c0.3,0.1,0.4,0.1,0.5-0.2
	c0.7-1.9,1.4-3.7,2.1-5.6c0-0.1,0-0.1,0.1-0.2c-0.3,0-0.6,0-0.9,0c-0.2,0-0.2,0.1-0.3,0.2c-0.4,1.7-0.9,3.4-1.3,5.1
	C213.7,96.8,213.6,97,213.6,97.2z M211.5,96.3C211.5,96.3,211.5,96.3,211.5,96.3c0,0.2,0,0.5,0,0.7c0,0.1,0,0.2,0.1,0.2
	c0.1,0,0.2,0,0.3-0.2c0-0.3,0.1-0.6,0.2-1c0.2-1,0.3-2,0.5-3.1c0.1-0.5,0.2-1.1,0.3-1.6c0-0.1,0-0.2-0.1-0.2c-0.2,0-0.4,0-0.5,0
	c-0.3,0-0.3-0.1-0.3,0.3C211.7,93.2,211.6,94.8,211.5,96.3z M209.6,96.3C209.6,96.3,209.6,96.3,209.6,96.3c-0.1-0.9-0.1-1.8-0.2-2.7
	c0-0.7-0.1-1.4-0.1-2.1c0-0.1-0.1-0.2-0.2-0.2c-0.2,0-0.4,0-0.5,0c-0.3,0-0.3,0-0.3,0.3c0.2,1.3,0.4,2.6,0.6,3.8
	c0.1,0.6,0.2,1.1,0.3,1.7c0,0.2,0.2,0.2,0.3,0.2c0.2,0,0.1-0.1,0.1-0.2C209.6,96.8,209.6,96.6,209.6,96.3z M204.9,91.3
	c0,0.1,0,0.1,0.1,0.2c0.7,1.8,1.4,3.6,2.1,5.4c0,0.1,0.1,0.2,0.1,0.3c0,0,0.1,0,0.2,0.1c0,0,0-0.1,0-0.1c0-0.1,0-0.1,0-0.2
	c-0.3-1.1-0.5-2.1-0.8-3.2c-0.2-0.8-0.4-1.6-0.6-2.3c0-0.1-0.1-0.1-0.1-0.1C205.6,91.3,205.3,91.3,204.9,91.3z M206.7,91.3
	c0.1,0.4,0.2,0.7,0.3,1c0.4,1.4,0.7,2.8,1.1,4.1c0.1,0.2,0.1,0.5,0.2,0.7c0,0.2,0.2,0.1,0.3,0.1c0.1,0,0.1-0.1,0.1-0.2
	c0-0.3-0.1-0.6-0.1-0.9c-0.2-1-0.3-2.1-0.5-3.1c-0.1-0.6-0.2-1.1-0.3-1.7c0-0.1-0.1-0.1-0.1-0.1C207.3,91.3,207,91.3,206.7,91.3z
	 M213.9,91.3c-0.1,0-0.1,0-0.2,0c-0.2,0-0.3,0-0.3,0.2c-0.2,1.1-0.4,2.2-0.6,3.3c-0.1,0.8-0.3,1.5-0.4,2.3c0,0.1-0.1,0.2,0.1,0.2
	c0.1,0,0.3,0.1,0.3-0.1c0-0.2,0.1-0.4,0.1-0.6c0.4-1.6,0.8-3.2,1.2-4.9C214.4,91.3,214.4,91.3,213.9,91.3z"/>
</svg>
