<?xml version="1.0" encoding="utf-8"?>
<!-- Generator: Adobe Illustrator 21.1.0, SVG Export Plug-In . SVG Version: 6.00 Build 0)  -->
<svg version="1.1" id="Layer_1" xmlns="http://www.w3.org/2000/svg" xmlns:xlink="http://www.w3.org/1999/xlink" x="0px" y="0px"
	 viewBox="0 0 240 120" style="enable-background:new 0 0 240 120;" xml:space="preserve">
<style type="text/css">
	.st0{fill:#7D7160;}
	.st1{fill:#D2C9C0;}
	.st2{fill:#FF6155;}
	.st3{fill:#FFFFFF;}
</style>
<g transform="translate(22, 22)">
	<path class="st0" d="M195,4h-4V1c0-0.6-0.4-1-1-1h-7c-1.7,0-3,1.3-3,3v10c0,1.7,1.3,3,3,3h12c0.6,0,1-0.4,1-1V5
		C196,4.4,195.6,4,195,4z M182,3c0-0.6,0.4-1,1-1h6v2h-7V3z M194,14h-11c-0.6,0-1-0.4-1-1V6h8h4V14z"/>
	<rect x="191" y="9" class="st1" width="2" height="2"/>
</g>
<g transform="translate(82, 22)">
	<path class="st0" d="M15,4h-3V1c0-0.6-0.4-1-1-1H5C4.4,0,4,0.4,4,1v3H1C0.4,4,0,4.4,0,5v10c0,0.6,0.4,1,1,1h14c0.6,0,1-0.4,1-1V5
		C16,4.4,15.6,4,15,4z M6,2h4v2H6V2z M14,14H2V6h12V14z"/>
	<rect x="5" y="7" class="st1" width="6" height="3"/>
</g>
<g transform="translate(142, 22)">
	<circle class="st1" cx="6" cy="8" r="2"/>
	<path class="st0" d="M10,2H6C2.7,2,0,4.7,0,8s2.7,6,6,6h4c3.3,0,6-2.7,6-6S13.3,2,10,2z M10,12H6c-2.2,0-4-1.8-4-4s1.8-4,4-4h4
		c2.2,0,4,1.8,4,4S12.2,12,10,12z"/>
</g>
<g transform="translate(22, 82)">
	<path class="st2" d="M195,4h-4V1c0-0.6-0.4-1-1-1h-7c-1.7,0-3,1.3-3,3v10c0,1.7,1.3,3,3,3h12c0.6,0,1-0.4,1-1V5
		C196,4.4,195.6,4,195,4z M182,3c0-0.6,0.4-1,1-1h6v2h-7V3z M194,14h-11c-0.6,0-1-0.4-1-1V6h8h4V14z"/>
	<rect x="191" y="9" class="st2" width="2" height="2"/>
</g>
<g transform="translate(82, 82)">
	<path class="st2" d="M15,4h-3V1c0-0.6-0.4-1-1-1H5C4.4,0,4,0.4,4,1v3H1C0.4,4,0,4.4,0,5v10c0,0.6,0.4,1,1,1h14c0.6,0,1-0.4,1-1V5
		C16,4.4,15.6,4,15,4z M6,2h4v2H6V2z M14,14H2V6h12V14z"/>
	<rect x="5" y="7" class="st2" width="6" height="3"/>
</g>
<g transform="translate(142, 82)">
	<circle class="st2" cx="6" cy="8" r="2"/>
	<path class="st2" d="M10,2H6C2.7,2,0,4.7,0,8s2.7,6,6,6h4c3.3,0,6-2.7,6-6S13.3,2,10,2z M10,12H6c-2.2,0-4-1.8-4-4s1.8-4,4-4h4
		c2.2,0,4,1.8,4,4S12.2,12,10,12z"/>
</g>
<g id="io8pn5.tif">
	<g>
		<path class="st0" d="M23.1,29.9c0.7,0,1.4,0,2.1,0c-0.1-0.3-0.2-0.5-0.3-0.8c-0.3-1.4,0.5-2.8,1.9-3.2c0.2-0.1,0.4-0.1,0.5-0.1
			c0,0,0.1-0.1,0.1-0.1c-0.1-0.8,0.3-1.4,1-1.8c0.4-0.2,0.8-0.5,1.2-0.7c0.2-0.1,0.4-0.3,0.6-0.5c0.3-0.3,0.3-0.7,0-1
			c-0.1-0.1-0.1-0.2-0.2-0.3c0.1,0,0.2,0.1,0.3,0.1c1.1,0.5,2,1.2,2.7,2.1c0.6,0.9,0.7,1.9,0.2,2.9c0,0,0,0.1,0,0.1
			c0.2,0.1,0.3,0.1,0.5,0.2c1.2,0.4,1.7,1.8,1.3,2.9c-0.1,0.2-0.1,0.2,0.1,0.2c0.5,0,1,0,1.4,0c0.1,0,0.1,0,0.2,0
			c-0.1,0.3-0.2,0.6-0.3,0.9c-0.8,2.2-1.6,4.4-2.4,6.6c-0.1,0.2-0.1,0.2-0.3,0.2c-2.5,0-4.9,0-7.4,0c-0.2,0-0.2-0.1-0.3-0.2
			c-0.7-1.8-1.5-3.7-2.2-5.5C23.6,31.3,23.4,30.6,23.1,29.9z M29.6,32.6C29.6,32.6,29.6,32.6,29.6,32.6c0.1,1.3,0.2,2.6,0.2,3.9
			c0,0.2,0.1,0.2,0.2,0.2c0.1,0,0.2-0.1,0.2-0.2c0.1-1.1,0.1-2.2,0.2-3.4c0-0.7,0.1-1.5,0.1-2.2c0-0.2,0-0.2-0.2-0.2
			c-0.2,0-0.5,0-0.7,0c-0.1,0-0.2,0-0.2,0.2C29.5,31.5,29.5,32.1,29.6,32.6z M33,36.7c0.3,0.1,0.4,0.1,0.5-0.2
			c0.7-1.9,1.4-3.7,2.1-5.6c0-0.1,0-0.1,0.1-0.2c-0.3,0-0.6,0-0.9,0c-0.2,0-0.2,0.1-0.3,0.2c-0.4,1.7-0.9,3.4-1.3,5.1
			C33.1,36.3,33.1,36.5,33,36.7z M30.9,35.8C30.9,35.8,30.9,35.8,30.9,35.8c0,0.2,0,0.5,0,0.7c0,0.1,0,0.2,0.1,0.2
			c0.1,0,0.2,0,0.3-0.2c0-0.3,0.1-0.6,0.2-1c0.2-1,0.3-2,0.5-3.1c0.1-0.5,0.2-1.1,0.3-1.6c0-0.1,0-0.2-0.1-0.2c-0.2,0-0.4,0-0.5,0
			c-0.3,0-0.3-0.1-0.3,0.3C31.1,32.7,31,34.3,30.9,35.8z M29.1,35.8C29.1,35.8,29.1,35.8,29.1,35.8C29,34.9,29,34,28.9,33.1
			c0-0.7-0.1-1.4-0.1-2.1c0-0.1-0.1-0.2-0.2-0.2c-0.2,0-0.4,0-0.5,0c-0.3,0-0.3,0-0.3,0.3c0.2,1.3,0.4,2.6,0.6,3.8
			c0.1,0.6,0.2,1.1,0.3,1.7c0,0.2,0.2,0.2,0.3,0.2c0.2,0,0.1-0.1,0.1-0.2C29.1,36.3,29.1,36.1,29.1,35.8z M24.4,30.8
			c0,0.1,0,0.1,0.1,0.2c0.7,1.8,1.4,3.6,2.1,5.4c0,0.1,0.1,0.2,0.1,0.3c0,0,0.1,0,0.2,0.1c0,0,0-0.1,0-0.1c0-0.1,0-0.1,0-0.2
			c-0.3-1.1-0.5-2.1-0.8-3.2c-0.2-0.8-0.4-1.6-0.6-2.3c0-0.1-0.1-0.1-0.1-0.1C25.1,30.8,24.7,30.8,24.4,30.8z M26.2,30.8
			c0.1,0.4,0.2,0.7,0.3,1c0.4,1.4,0.7,2.8,1.1,4.1c0.1,0.2,0.1,0.5,0.2,0.7c0,0.2,0.2,0.1,0.3,0.1c0.1,0,0.1-0.1,0.1-0.2
			c0-0.3-0.1-0.6-0.1-0.9c-0.2-1-0.3-2.1-0.5-3.1c-0.1-0.6-0.2-1.1-0.3-1.7c0-0.1-0.1-0.1-0.1-0.1C26.7,30.8,26.5,30.8,26.2,30.8z
			 M33.4,30.8c-0.1,0-0.1,0-0.2,0c-0.2,0-0.3,0-0.3,0.2c-0.2,1.1-0.4,2.2-0.6,3.3c-0.1,0.8-0.3,1.5-0.4,2.3c0,0.1-0.1,0.2,0.1,0.2
			c0.1,0,0.3,0.1,0.3-0.1c0-0.2,0.1-0.4,0.1-0.6c0.4-1.6,0.8-3.2,1.2-4.9C33.9,30.8,33.8,30.8,33.4,30.8z"/>
		<path class="st3" d="M29.6,32.6c0-0.6-0.1-1.1-0.1-1.7c0-0.2,0-0.2,0.2-0.2c0.2,0,0.5,0,0.7,0c0.2,0,0.2,0,0.2,0.2
			c0,0.7-0.1,1.5-0.1,2.2c-0.1,1.1-0.1,2.2-0.2,3.4c0,0.1-0.1,0.2-0.2,0.2c-0.2,0-0.2,0-0.2-0.2C29.7,35.3,29.6,33.9,29.6,32.6
			C29.6,32.6,29.6,32.6,29.6,32.6z"/>
		<path class="st3" d="M33,36.7c0.1-0.2,0.1-0.4,0.2-0.6c0.4-1.7,0.9-3.4,1.3-5.1c0-0.2,0.1-0.2,0.3-0.2c0.3,0,0.6,0,0.9,0
			c0,0.1,0,0.2-0.1,0.2c-0.7,1.9-1.4,3.7-2.1,5.6C33.4,36.8,33.3,36.8,33,36.7z"/>
		<path class="st3" d="M30.9,35.8c0.1-1.6,0.2-3.1,0.3-4.7c0-0.4,0-0.3,0.3-0.3c0.2,0,0.4,0,0.5,0c0.1,0,0.2,0,0.1,0.2
			c-0.1,0.5-0.2,1.1-0.3,1.6c-0.2,1-0.3,2-0.5,3.1c-0.1,0.3-0.1,0.6-0.2,1c0,0.2-0.2,0.1-0.3,0.2c-0.2,0-0.1-0.1-0.1-0.2
			C30.9,36.3,30.9,36.1,30.9,35.8C30.9,35.8,30.9,35.8,30.9,35.8z"/>
		<path class="st3" d="M29.1,35.8c0,0.3,0,0.5,0,0.8c0,0.1,0.1,0.2-0.1,0.2c-0.1,0-0.3,0-0.3-0.2c-0.1-0.6-0.2-1.1-0.3-1.7
			c-0.2-1.3-0.4-2.6-0.6-3.8c-0.1-0.3-0.1-0.3,0.3-0.3c0.2,0,0.4,0,0.5,0c0.1,0,0.2,0,0.2,0.2c0,0.7,0.1,1.4,0.1,2.1
			C29,34,29,34.9,29.1,35.8C29.1,35.8,29.1,35.8,29.1,35.8z"/>
		<path class="st3" d="M24.4,30.8c0.4,0,0.7,0,1,0c0,0,0.1,0.1,0.1,0.1c0.2,0.8,0.4,1.6,0.6,2.3c0.3,1.1,0.5,2.1,0.8,3.2
			c0,0.1,0,0.1,0,0.2c0,0,0,0.1,0,0.1c-0.1,0-0.2,0-0.2-0.1c-0.1-0.1-0.1-0.2-0.1-0.3c-0.7-1.8-1.4-3.6-2.1-5.4
			C24.4,30.9,24.4,30.9,24.4,30.8z"/>
		<path class="st3" d="M26.2,30.8c0.3,0,0.6,0,0.8,0c0,0,0.1,0.1,0.1,0.1c0.1,0.6,0.2,1.1,0.3,1.7c0.2,1,0.3,2.1,0.5,3.1
			c0.1,0.3,0.1,0.6,0.1,0.9c0,0.1,0.1,0.2-0.1,0.2c-0.1,0-0.3,0.1-0.3-0.1c-0.1-0.2-0.1-0.5-0.2-0.7c-0.4-1.4-0.7-2.8-1.1-4.1
			C26.3,31.5,26.2,31.2,26.2,30.8z"/>
		<path class="st3" d="M33.4,30.8c0.5,0,0.5,0,0.3,0.4c-0.4,1.6-0.8,3.2-1.2,4.9c0,0.2-0.1,0.4-0.1,0.6c0,0.2-0.2,0.1-0.3,0.1
			c-0.1,0-0.1-0.1-0.1-0.2c0.1-0.8,0.3-1.5,0.4-2.3c0.2-1.1,0.4-2.2,0.6-3.3c0-0.2,0.1-0.3,0.3-0.2C33.3,30.8,33.3,30.8,33.4,30.8z"
			/>
	</g>
</g>
<path class="st2" d="M23.6,89.1c0.7,0,1.4,0,2.1,0c-0.1-0.3-0.2-0.5-0.3-0.8c-0.3-1.4,0.5-2.8,1.9-3.2c0.2-0.1,0.4-0.1,0.5-0.1
	c0,0,0.1-0.1,0.1-0.1c-0.1-0.8,0.3-1.4,1-1.8c0.4-0.2,0.8-0.5,1.2-0.7c0.2-0.1,0.4-0.3,0.6-0.5c0.3-0.3,0.3-0.7,0-1
	c-0.1-0.1-0.1-0.2-0.2-0.3c0.1,0,0.2,0.1,0.3,0.1c1.1,0.5,2,1.2,2.7,2.1c0.6,0.9,0.7,1.9,0.2,2.9c0,0,0,0.1,0,0.1
	c0.2,0.1,0.3,0.1,0.5,0.2c1.2,0.4,1.7,1.8,1.3,2.9c-0.1,0.2-0.1,0.2,0.1,0.2c0.5,0,1,0,1.4,0c0.1,0,0.1,0,0.2,0
	c-0.1,0.3-0.2,0.6-0.3,0.9c-0.8,2.2-1.6,4.4-2.4,6.6c-0.1,0.2-0.1,0.2-0.3,0.2c-2.5,0-4.9,0-7.4,0c-0.2,0-0.2-0.1-0.3-0.2
	c-0.7-1.8-1.5-3.7-2.2-5.5C24.1,90.5,23.8,89.8,23.6,89.1z M30,91.8C30,91.8,30,91.8,30,91.8c0.1,1.3,0.2,2.6,0.2,3.9
	c0,0.2,0.1,0.2,0.2,0.2c0.1,0,0.2-0.1,0.2-0.2c0.1-1.1,0.1-2.2,0.2-3.4c0-0.7,0.1-1.5,0.1-2.2c0-0.2,0-0.2-0.2-0.2
	c-0.2,0-0.5,0-0.7,0c-0.1,0-0.2,0-0.2,0.2C29.9,90.7,30,91.3,30,91.8z M33.5,96c0.3,0.1,0.4,0.1,0.5-0.2c0.7-1.9,1.4-3.7,2.1-5.6
	c0-0.1,0-0.1,0.1-0.2c-0.3,0-0.6,0-0.9,0c-0.2,0-0.2,0.1-0.3,0.2c-0.4,1.7-0.9,3.4-1.3,5.1C33.6,95.5,33.5,95.7,33.5,96z M31.4,95.1
	C31.4,95.1,31.4,95.1,31.4,95.1c0,0.2,0,0.5,0,0.7c0,0.1,0,0.2,0.1,0.2c0.1,0,0.2,0,0.3-0.2c0-0.3,0.1-0.6,0.2-1
	c0.2-1,0.3-2,0.5-3.1c0.1-0.5,0.2-1.1,0.3-1.6c0-0.1,0-0.2-0.1-0.2c-0.2,0-0.4,0-0.5,0c-0.3,0-0.3-0.1-0.3,0.3
	C31.6,91.9,31.5,93.5,31.4,95.1z M29.5,95C29.5,95,29.5,95,29.5,95c-0.1-0.9-0.1-1.8-0.2-2.7c0-0.7-0.1-1.4-0.1-2.1
	c0-0.1-0.1-0.2-0.2-0.2c-0.2,0-0.4,0-0.5,0c-0.3,0-0.3,0-0.3,0.3c0.2,1.3,0.4,2.6,0.6,3.8c0.1,0.6,0.2,1.1,0.3,1.7
	c0,0.2,0.2,0.2,0.3,0.2c0.2,0,0.1-0.1,0.1-0.2C29.5,95.5,29.5,95.3,29.5,95z M24.8,90c0,0.1,0,0.1,0.1,0.2c0.7,1.8,1.4,3.6,2.1,5.4
	c0,0.1,0.1,0.2,0.1,0.3c0,0,0.1,0,0.2,0.1c0,0,0-0.1,0-0.1c0-0.1,0-0.1,0-0.2c-0.3-1.1-0.5-2.1-0.8-3.2c-0.2-0.8-0.4-1.6-0.6-2.3
	c0-0.1-0.1-0.1-0.1-0.1C25.5,90,25.2,90,24.8,90z M26.6,90c0.1,0.4,0.2,0.7,0.3,1c0.4,1.4,0.7,2.8,1.1,4.1c0.1,0.2,0.1,0.5,0.2,0.7
	c0,0.2,0.2,0.1,0.3,0.1c0.1,0,0.1-0.1,0.1-0.2c0-0.3-0.1-0.6-0.1-0.9c-0.2-1-0.3-2.1-0.5-3.1c-0.1-0.6-0.2-1.1-0.3-1.7
	c0-0.1-0.1-0.1-0.1-0.1C27.2,90,26.9,90,26.6,90z M33.8,90c-0.1,0-0.1,0-0.2,0c-0.2,0-0.3,0-0.3,0.2c-0.2,1.1-0.4,2.2-0.6,3.3
	c-0.1,0.8-0.3,1.5-0.4,2.3c0,0.1-0.1,0.2,0.1,0.2c0.1,0,0.3,0.1,0.3-0.1c0-0.2,0.1-0.4,0.1-0.6c0.4-1.6,0.8-3.2,1.2-4.9
	C34.3,90,34.3,90,33.8,90z"/>
</svg>
