<?xml version="1.0" encoding="utf-8"?>
<!-- Generator: Adobe Illustrator 21.1.0, SVG Export Plug-In . SVG Version: 6.00 Build 0)  -->
<svg version="1.1" id="Layer_1" xmlns="http://www.w3.org/2000/svg" xmlns:xlink="http://www.w3.org/1999/xlink" x="0px" y="0px"
	 viewBox="0 0 100 100" style="enable-background:new 0 0 100 100;" xml:space="preserve">
<style type="text/css">
	.st0{fill:#EC625A;}
</style>
<path class="st0" d="M12.1,52.8c4,0,7.8,0,11.7,0c-0.5-1.5-1.1-2.8-1.4-4.1c-1.9-7.7,2.7-15.7,10.3-17.9c0.9-0.3,2-0.4,2.9-0.6
	c0.3-0.1,0.6-0.5,0.6-0.7c-0.3-4.5,1.7-7.7,5.3-10c2.2-1.4,4.5-2.6,6.7-4c1.2-0.8,2.3-1.6,3.3-2.6c1.9-1.9,1.9-3.7,0.2-5.8
	c-0.4-0.5-0.8-0.9-1.1-1.5c0.6,0.2,1.3,0.4,1.9,0.7C58.4,9,63.6,12.6,67.4,18c3.6,5.1,3.9,10.5,1.1,16.1c-0.1,0.1-0.1,0.3-0.1,0.5
	c0.9,0.3,1.9,0.5,2.8,0.9c6.4,2.5,9.5,9.9,6.9,16.2c-0.5,1.2-0.5,1.2,0.8,1.2c2.6,0,5.3,0,7.9,0c0.3,0,0.7,0,1.1,0.1
	c-0.6,1.7-1.2,3.4-1.8,5C81.6,69.9,77,82,72.6,94.1c-0.3,0.8-0.7,1.1-1.6,1.1c-13.7,0-27.3,0-41,0c-0.9,0-1.3-0.3-1.7-1.2
	c-4-10.2-8-20.4-12-30.6C14.9,60,13.6,56.5,12.1,52.8z M47.6,67.6C47.6,67.6,47.6,67.6,47.6,67.6c0.4,7.3,0.9,14.5,1.2,21.8
	c0.1,1,0.4,1.2,1.3,1.2c0.8,0,1.1-0.3,1.1-1.1c0.3-6.2,0.7-12.4,1.1-18.6c0.2-4.1,0.5-8.2,0.7-12.4c0.1-0.8-0.2-1.1-1.1-1.1
	c-1.3,0.1-2.6,0-3.9,0c-0.8,0-1.1,0.2-1,1C47.2,61.5,47.4,64.6,47.6,67.6z M66.8,90.4c1.7,0.5,2.1,0.3,2.6-1.1
	c3.8-10.2,7.6-20.4,11.4-30.7c0.1-0.3,0.2-0.6,0.3-1.2c-1.7,0-3.2,0.1-4.7,0c-0.9,0-1.3,0.3-1.5,1.2c-2.4,9.4-4.8,18.8-7.2,28.2
	C67.4,88,67.1,89.2,66.8,90.4z M55.2,85.4C55.2,85.4,55.2,85.4,55.2,85.4c-0.1,1.4-0.2,2.7-0.2,4.1c0,0.5-0.2,1.1,0.7,1.1
	c0.6,0,1.3,0.2,1.5-0.8c0.2-1.8,0.6-3.5,0.9-5.3c1-5.6,1.9-11.3,2.8-16.9c0.5-3,1-6.1,1.5-9.1c0.1-0.7-0.1-0.9-0.8-0.9c-1,0-2,0-3,0
	c-1.8,0-1.8-0.3-1.9,1.8C56.2,68,55.7,76.7,55.2,85.4z M44.9,85.1C44.9,85.1,44.8,85.1,44.9,85.1c-0.3-5-0.6-10-0.9-15.1
	c-0.2-3.9-0.5-7.7-0.7-11.6c0-0.7-0.3-1-1-1c-1,0-2,0-3,0c-1.8,0-1.8,0-1.5,1.8c1.2,7,2.4,14.1,3.6,21.1c0.5,3.1,1.1,6.1,1.5,9.2
	c0.2,1.1,0.9,1,1.6,1c0.9,0,0.6-0.7,0.6-1.1C45,88,44.9,86.6,44.9,85.1z M19,57.5c0.2,0.5,0.2,0.7,0.3,0.9c3.9,10,7.8,20,11.8,29.9
	c0.2,0.6,0.4,1.2,0.8,1.8c0.2,0.3,0.7,0.3,1,0.4c0.1-0.3,0.2-0.5,0.2-0.8c0-0.3-0.1-0.6-0.2-0.8c-1.5-5.9-3-11.7-4.5-17.6
	c-1.1-4.3-2.2-8.6-3.3-12.9c-0.1-0.3-0.4-0.8-0.6-0.8C22.7,57.5,21,57.5,19,57.5z M28.8,57.5c0.5,2,0.9,3.8,1.4,5.6
	c1.9,7.6,3.9,15.2,5.8,22.8c0.3,1.3,0.7,2.7,1,4c0.2,1,1,0.7,1.6,0.7c0.7-0.1,0.5-0.6,0.4-1c-0.3-1.6-0.5-3.3-0.8-4.9
	c-1-5.7-1.9-11.4-2.9-17c-0.5-3.1-1-6.1-1.6-9.2c-0.1-0.3-0.3-0.8-0.5-0.8C31.9,57.5,30.4,57.5,28.8,57.5z M68.8,57.5
	c-0.4,0-0.7,0-1.1,0c-1-0.1-1.4,0.2-1.6,1.3c-1,6.1-2,12.2-3.1,18.3c-0.7,4.2-1.4,8.3-2.1,12.5c-0.1,0.4-0.4,1,0.4,1
	c0.6,0,1.4,0.3,1.6-0.7c0.2-1,0.5-2.1,0.8-3.1c2.3-9,4.6-17.9,6.9-26.9C71.3,57.5,71.3,57.5,68.8,57.5z"/>
</svg>
