<svg id="Layer_1" data-name="Layer 1" xmlns="http://www.w3.org/2000/svg" viewBox="0 0 1478.83 123.36"><defs><style>.cls-1{fill:none;stroke:#009bde;stroke-miterlimit:10;stroke-width:2px;}.cls-2{fill:#0033a0;}.cls-3{fill:#009bde;}</style></defs><title>Hibbert_CMS_logo</title><text x="-19.34" y="-9.64"></text><line class="cls-1" x1="460.79" y1="6.48" x2="460.79" y2="99.72"/><path class="cls-2" d="M118.69,52.31v-18h20.57v18Zm.51,56.35V57.58h19.54v51.08Z" transform="translate(-19.34 -9.64)"/><path class="cls-2" d="M189.8,110c-10.42,0-16.85-4.94-21.47-10.67v9.34H148.78V15.29h19.55V47.44c4.76-6.67,11.32-11.61,21.47-11.61,16.07,0,31.37,13.07,31.37,36.95V73C221.17,96.92,206.13,110,189.8,110Zm11.83-37.22c0-11.87-7.72-19.74-16.84-19.74s-16.72,7.87-16.72,19.74V73c0,11.87,7.59,19.74,16.72,19.74S201.63,85.05,201.63,73Z" transform="translate(-19.34 -9.64)"/><path class="cls-2" d="M266.52,110c-10.42,0-16.84-4.94-21.47-10.67v9.34H225.5V15.29H245V47.44c4.76-6.67,11.32-11.61,21.47-11.61,16.07,0,31.37,13.07,31.37,36.95V73C297.89,96.92,282.85,110,266.52,110Zm11.83-37.22c0-11.87-7.71-19.74-16.85-19.74s-16.72,7.87-16.72,19.74V73c0,11.87,7.59,19.74,16.72,19.74S278.35,85.05,278.35,73Z" transform="translate(-19.34 -9.64)"/><path class="cls-2" d="M369.69,80h-48c1.93,9.2,8.1,14,16.84,14,6.56,0,11.32-2.13,16.72-7.34l11.19,10.27c-6.43,8.27-15.69,13.34-28.16,13.34-20.7,0-36-15.07-36-36.95V73c0-20.41,14-37.22,34.08-37.22,23,0,33.56,18.54,33.56,38.82v.27C369.94,76.91,369.81,78.12,369.69,80ZM336.38,52.1c-8.1,0-13.37,6-14.92,15.21h29.45C349.76,58.24,344.61,52.1,336.38,52.1Z" transform="translate(-19.34 -9.64)"/><path class="cls-2" d="M461.11,54.51V37.17h-16.2V15.78H425.36V37.17h-8.15v-.25c-11.57-.53-17.78,4.79-21.76,14.66V37.17H375.9v71.49h19.55V82.25c0-17.07,7.75-27.55,20.73-27.55h1v-.19h8.15V88.39c0,16.54,8.1,21.47,20.06,21.47a28,28,0,0,0,15.43-4.13V89.45A19.33,19.33,0,0,1,451.21,92c-4.37,0-6.3-2.27-6.3-6.94V54.51Z" transform="translate(-19.34 -9.64)"/><path class="cls-2" d="M84.74,15.36V53.24c7.23-.37,15.25-.57,24.15-.58V15.36Z" transform="translate(-19.34 -9.64)"/><path class="cls-2" d="M43.5,58.63V15.36H19.35V69.73C19.47,66.53,22.13,64.11,43.5,58.63Z" transform="translate(-19.34 -9.64)"/><path class="cls-2" d="M108.86,57.58c-85.57,0-89.69,18.34-89.51,22.84v27.36H43.5V78.17c3.83-8.5,24.23-12,41.24-13.41v43h24.15V58.87h0Z" transform="translate(-19.34 -9.64)"/><path class="cls-3" d="M108.86,57.58c-85.57,0-89.69,18.34-89.51,22.84v27.36H43.5V78.17c3.83-8.5,24.23-12,41.24-13.41l24.15-2.18s0-3.71,0-3.71Z" transform="translate(-19.34 -9.64)"/><path class="cls-3" d="M557.54,104a21.58,21.58,0,0,1-9.13,3.84A61.3,61.3,0,0,1,536.63,109a38.6,38.6,0,0,1-14.18-2.58,31,31,0,0,1-11.53-7.87A37.87,37.87,0,0,1,503.11,85a59.15,59.15,0,0,1-2.88-19.52q0-11.77,3.18-20A38.22,38.22,0,0,1,511.82,32a32.38,32.38,0,0,1,11.71-7.63A37.79,37.79,0,0,1,536.75,22a72.3,72.3,0,0,1,11.77.78,37.84,37.84,0,0,1,7.81,2.1l-2.4,8.89q-5.77-2.88-16.46-2.88a27.52,27.52,0,0,0-9.73,1.8,22.34,22.34,0,0,0-8.59,5.89,29.85,29.85,0,0,0-6.07,10.69,50.07,50.07,0,0,0-2.28,16.22A47.94,47.94,0,0,0,513,80.61a31.17,31.17,0,0,0,5.95,10.81,24.28,24.28,0,0,0,8.89,6.49,28.2,28.2,0,0,0,11.11,2.16A36.55,36.55,0,0,0,548.35,99a26,26,0,0,0,6.79-2.76Z" transform="translate(-19.34 -9.64)"/><path class="cls-3" d="M582,92.75q0,4.21,1.44,6a4.93,4.93,0,0,0,4.08,1.8,25.23,25.23,0,0,0,3.36-.24A19.36,19.36,0,0,0,595,99.23l1.08,7.57a20,20,0,0,1-5.35,1.56,35.06,35.06,0,0,1-5.95.6,13,13,0,0,1-8.89-3.06q-3.49-3.06-3.48-10.39V23.42H582Z" transform="translate(-19.34 -9.64)"/><path class="cls-3" d="M606.44,29.19a6.68,6.68,0,0,1,1.86-4.75,6.22,6.22,0,0,1,4.75-2,6.82,6.82,0,0,1,4.93,2,6.38,6.38,0,0,1,2,4.75,5.82,5.82,0,0,1-2,4.57,7.19,7.19,0,0,1-4.93,1.8,6.54,6.54,0,0,1-4.75-1.8A6.08,6.08,0,0,1,606.44,29.19Zm2,18.26h9.61v60.07h-9.61Z" transform="translate(-19.34 -9.64)"/><path class="cls-3" d="M682.49,102.72a27.15,27.15,0,0,1-9.07,4.57A39.23,39.23,0,0,1,661.83,109a29.33,29.33,0,0,1-11.89-2.22,21.15,21.15,0,0,1-8.29-6.37,27.56,27.56,0,0,1-4.81-9.91,49.65,49.65,0,0,1-1.56-13q0-15.38,6.85-23.43t19.58-8a37.85,37.85,0,0,1,8.17.9,17.26,17.26,0,0,1,12.62,10.57q2,4.63,2,12.2a59.55,59.55,0,0,1-.72,8.77H645.25a36.75,36.75,0,0,0,1.08,9.37,18.24,18.24,0,0,0,3.36,6.91,14.56,14.56,0,0,0,5.95,4.33,23.61,23.61,0,0,0,9,1.5,24.42,24.42,0,0,0,8.17-1.44,17.37,17.37,0,0,0,6.13-3.36Zm-20.67-48.3q-7.09,0-11.35,3.72t-5.11,12.74h29.8q0-9.13-3.48-12.8T661.83,54.42Z" transform="translate(-19.34 -9.64)"/><path class="cls-3" d="M738.24,107.53V73.28q0-9.37-2.7-14.12t-9.91-4.75a16,16,0,0,0-10.51,3.42,18.25,18.25,0,0,0-5.83,8.59v41.09h-9.61V47.45h6.73l1.8,7.33h.48a21.78,21.78,0,0,1,7.75-6.31A25.41,25.41,0,0,1,728,46a29.63,29.63,0,0,1,8.65,1.14,13,13,0,0,1,6.19,4,19.19,19.19,0,0,1,3.72,7.75,50.19,50.19,0,0,1,1.26,12.32v36.29Z" transform="translate(-19.34 -9.64)"/><path class="cls-3" d="M757.46,47.45h9.37V35.56l9.61-2.76V47.45h16.34v8.41H776.45V89.14q0,6.25,1.56,8.83t5.29,2.58a18.3,18.3,0,0,0,5.29-.66q2.16-.66,4.81-1.74l2.16,7.33a36.87,36.87,0,0,1-7.09,2.52,34.13,34.13,0,0,1-8.29,1q-7.33,0-10.33-4.14t-3-13.88V55.86h-9.37Z" transform="translate(-19.34 -9.64)"/><path class="cls-3" d="M903.81,51.06,905,38.44h-.6L899.84,50,878,87.94h-3L851.78,49.85l-4.33-11.41h-.6l1.68,12.5v56.59h-9.37V23.42h7.45l26.31,43,4,9.37h.24l3.72-9.61L906,23.42h7.81v84.1h-10Z" transform="translate(-19.34 -9.64)"/><path class="cls-3" d="M932.28,51.9a34.65,34.65,0,0,1,10.63-4.08,59.44,59.44,0,0,1,12.68-1.32,25,25,0,0,1,10,1.68,14,14,0,0,1,5.77,4.39A15,15,0,0,1,974,58.5a32.51,32.51,0,0,1,.66,6.49q0,7.21-.36,14.06T974,92q0,4.45.36,8.41a39.7,39.7,0,0,0,1.32,7.33h-7.09L966,99.36h-.6a19.92,19.92,0,0,1-2.7,3.3,17.38,17.38,0,0,1-3.9,2.88,24.66,24.66,0,0,1-5.29,2.1,25.5,25.5,0,0,1-6.85.84,20.78,20.78,0,0,1-7.15-1.2,16.65,16.65,0,0,1-5.71-3.42,16,16,0,0,1-3.79-5.35,17.34,17.34,0,0,1-1.38-7.09,16.69,16.69,0,0,1,2.16-8.83,15.6,15.6,0,0,1,6.07-5.65,30,30,0,0,1,9.37-3,74.52,74.52,0,0,1,12.08-.9h3.3a23.43,23.43,0,0,1,3.3.24q.36-3.6.36-6.49,0-6.61-2.64-9.25t-9.61-2.64a33.55,33.55,0,0,0-4.39.31q-2.34.31-4.81.87a39.25,39.25,0,0,0-4.69,1.36,23.36,23.36,0,0,0-3.91,1.79Zm17.06,48.18a18.58,18.58,0,0,0,6-.9,17.37,17.37,0,0,0,4.57-2.28,14.5,14.5,0,0,0,3.18-3.06A13.63,13.63,0,0,0,965,90.58v-10q-1.68-.12-3.42-.18t-3.42-.06a61.75,61.75,0,0,0-7.27.42,23.09,23.09,0,0,0-6.25,1.56,11,11,0,0,0-4.33,3.12,7.62,7.62,0,0,0-1.62,5,8.88,8.88,0,0,0,3,6.91A11.06,11.06,0,0,0,949.34,100.08Z" transform="translate(-19.34 -9.64)"/><path class="cls-3" d="M1031.4,107.53V73.28q0-9.37-2.7-14.12t-9.91-4.75a16,16,0,0,0-10.51,3.42,18.25,18.25,0,0,0-5.83,8.59v41.09h-9.61V47.45h6.73l1.8,7.33h.48a21.78,21.78,0,0,1,7.75-6.31A25.41,25.41,0,0,1,1021.19,46a29.63,29.63,0,0,1,8.65,1.14,13,13,0,0,1,6.19,4,19.19,19.19,0,0,1,3.72,7.75A50.19,50.19,0,0,1,1041,71.24v36.29Z" transform="translate(-19.34 -9.64)"/><path class="cls-3" d="M1057.59,51.9a34.65,34.65,0,0,1,10.63-4.08,59.44,59.44,0,0,1,12.68-1.32,25,25,0,0,1,10,1.68,14,14,0,0,1,5.77,4.39,15,15,0,0,1,2.64,5.95A32.51,32.51,0,0,1,1100,65q0,7.21-.36,14.06t-.36,13q0,4.45.36,8.41a39.7,39.7,0,0,0,1.32,7.33h-7.09l-2.52-8.41h-.6a19.92,19.92,0,0,1-2.7,3.3,17.38,17.38,0,0,1-3.9,2.88,24.66,24.66,0,0,1-5.29,2.1,25.5,25.5,0,0,1-6.85.84,20.78,20.78,0,0,1-7.15-1.2,16.65,16.65,0,0,1-5.71-3.42,16,16,0,0,1-3.79-5.35,17.34,17.34,0,0,1-1.38-7.09,16.69,16.69,0,0,1,2.16-8.83,15.6,15.6,0,0,1,6.07-5.65,30,30,0,0,1,9.37-3,74.52,74.52,0,0,1,12.08-.9h3.3a23.43,23.43,0,0,1,3.3.24q.36-3.6.36-6.49,0-6.61-2.64-9.25t-9.61-2.64a33.55,33.55,0,0,0-4.39.31q-2.34.31-4.81.87a39.25,39.25,0,0,0-4.69,1.36,23.36,23.36,0,0,0-3.91,1.79Zm17.06,48.18a18.58,18.58,0,0,0,6-.9,17.37,17.37,0,0,0,4.57-2.28,14.5,14.5,0,0,0,3.18-3.06,13.63,13.63,0,0,0,1.86-3.24v-10q-1.68-.12-3.42-.18t-3.42-.06a61.75,61.75,0,0,0-7.27.42,23.09,23.09,0,0,0-6.25,1.56,11,11,0,0,0-4.33,3.12,7.62,7.62,0,0,0-1.62,5,8.88,8.88,0,0,0,3,6.91A11.06,11.06,0,0,0,1074.66,100.08Z" transform="translate(-19.34 -9.64)"/><path class="cls-3" d="M1164.17,110.29q0,11.65-6.19,17.18T1139.66,133a59.83,59.83,0,0,1-11.59-.9,34.63,34.63,0,0,1-7.51-2.34l2.52-8.17q2.76,1.08,6.13,2a32.79,32.79,0,0,0,8.77,1,31,31,0,0,0,8.23-.9,10.69,10.69,0,0,0,5.11-3,11.47,11.47,0,0,0,2.64-5.41,37.41,37.41,0,0,0,.72-7.87v-5.77h-.48a16.07,16.07,0,0,1-6.13,5.35,21.84,21.84,0,0,1-9.73,1.86q-12.14,0-17.84-7.57t-5.71-23.55q0-15.38,7.33-23.37t21.63-8a54.74,54.74,0,0,1,11.71,1.08,65.23,65.23,0,0,1,8.71,2.52ZM1140,100.44q6.13,0,9.61-3.06t4.93-9.55V57.06a28.64,28.64,0,0,0-12.26-2.28q-8.17,0-12.86,5.53t-4.69,17.3a47.19,47.19,0,0,0,.84,9.25,22.46,22.46,0,0,0,2.64,7.21,13.12,13.12,0,0,0,4.69,4.69A13.84,13.84,0,0,0,1140,100.44Z" transform="translate(-19.34 -9.64)"/><path class="cls-3" d="M1226.52,102.72a27.15,27.15,0,0,1-9.07,4.57,39.23,39.23,0,0,1-11.59,1.68,29.33,29.33,0,0,1-11.89-2.22,21.15,21.15,0,0,1-8.29-6.37,27.56,27.56,0,0,1-4.81-9.91,49.65,49.65,0,0,1-1.56-13q0-15.38,6.85-23.43t19.58-8a37.85,37.85,0,0,1,8.17.9,17.26,17.26,0,0,1,12.62,10.57q2,4.63,2,12.2a59.55,59.55,0,0,1-.72,8.77h-38.57a36.75,36.75,0,0,0,1.08,9.37,18.24,18.24,0,0,0,3.36,6.91,14.56,14.56,0,0,0,5.95,4.33,23.61,23.61,0,0,0,9,1.5,24.42,24.42,0,0,0,8.17-1.44,17.37,17.37,0,0,0,6.13-3.36Zm-20.67-48.3q-7.09,0-11.35,3.72t-5.11,12.74h29.8q0-9.13-3.48-12.8T1205.86,54.42Z" transform="translate(-19.34 -9.64)"/><path class="cls-3" d="M1278.91,107.53v-34a72.24,72.24,0,0,0-.42-8.35,18.17,18.17,0,0,0-1.62-5.95,8.09,8.09,0,0,0-3.42-3.6,12.25,12.25,0,0,0-5.83-1.2,13.08,13.08,0,0,0-9.19,3.36,17.8,17.8,0,0,0-5.11,8.41v41.33h-9.61V47.45h6.73l1.8,7.33h.48a28.27,28.27,0,0,1,7.51-6.31q4.26-2.46,11.11-2.46a18,18,0,0,1,9.43,2.22q3.66,2.22,5.71,7.75a19.47,19.47,0,0,1,7.63-7.33,22.67,22.67,0,0,1,11-2.64,27.68,27.68,0,0,1,8.53,1.14,12,12,0,0,1,5.77,4,18.52,18.52,0,0,1,3.3,7.81,63.32,63.32,0,0,1,1,12.5v36h-9.61V71.36a58.22,58.22,0,0,0-.42-7.51,13.73,13.73,0,0,0-1.68-5.29,7.76,7.76,0,0,0-3.48-3.12,14.1,14.1,0,0,0-5.83-1q-6,0-9.37,3.36t-4.81,9.61v40.13Z" transform="translate(-19.34 -9.64)"/><path class="cls-3" d="M1385.12,102.72a27.15,27.15,0,0,1-9.07,4.57,39.23,39.23,0,0,1-11.59,1.68,29.33,29.33,0,0,1-11.89-2.22,21.15,21.15,0,0,1-8.29-6.37,27.56,27.56,0,0,1-4.81-9.91,49.65,49.65,0,0,1-1.56-13q0-15.38,6.85-23.43t19.58-8a37.85,37.85,0,0,1,8.17.9,17.26,17.26,0,0,1,12.62,10.57q2,4.63,2,12.2a59.55,59.55,0,0,1-.72,8.77h-38.57a36.75,36.75,0,0,0,1.08,9.37,18.24,18.24,0,0,0,3.36,6.91,14.56,14.56,0,0,0,5.95,4.33,23.61,23.61,0,0,0,9,1.5,24.42,24.42,0,0,0,8.17-1.44,17.37,17.37,0,0,0,6.13-3.36Zm-20.67-48.3q-7.09,0-11.35,3.72T1348,70.88h29.8q0-9.13-3.48-12.8T1364.45,54.42Z" transform="translate(-19.34 -9.64)"/><path class="cls-3" d="M1440.87,107.53V73.28q0-9.37-2.7-14.12t-9.91-4.75a16,16,0,0,0-10.51,3.42,18.25,18.25,0,0,0-5.83,8.59v41.09h-9.61V47.45H1409l1.8,7.33h.48a21.78,21.78,0,0,1,7.75-6.31A25.41,25.41,0,0,1,1430.65,46a29.63,29.63,0,0,1,8.65,1.14,13,13,0,0,1,6.19,4,19.19,19.19,0,0,1,3.72,7.75,50.19,50.19,0,0,1,1.26,12.32v36.29Z" transform="translate(-19.34 -9.64)"/><path class="cls-3" d="M1460.09,47.45h9.37V35.56l9.61-2.76V47.45h16.34v8.41h-16.34V89.14q0,6.25,1.56,8.83t5.29,2.58a18.3,18.3,0,0,0,5.29-.66q2.16-.66,4.81-1.74l2.16,7.33a36.87,36.87,0,0,1-7.09,2.52,34.13,34.13,0,0,1-8.29,1q-7.33,0-10.33-4.14t-3-13.88V55.86h-9.37Z" transform="translate(-19.34 -9.64)"/></svg>