<?xml version="1.0" standalone="no"?>
<!DOCTYPE svg PUBLIC "-//W3C//DTD SVG 20010904//EN"
 "http://www.w3.org/TR/2001/REC-SVG-20010904/DTD/svg10.dtd">
<svg version="1.0" xmlns="http://www.w3.org/2000/svg"
 width="720.000000pt" height="720.000000pt" viewBox="0 0 720.000000 720.000000"
 preserveAspectRatio="xMidYMid meet">
<metadata>
Created by potrace 1.11, written by Peter Selinger 2001-2013
</metadata>
<g transform="translate(0.000000,720.000000) scale(0.100000,-0.100000)"
fill="#000000" stroke="none">
<path d="M3245 5929 c-664 -42 -1291 -204 -1833 -474 -443 -221 -791 -494
-1033 -810 -504 -657 -504 -1433 0 -2090 397 -518 1104 -935 1936 -1140 449
-111 784 -150 1285 -150 501 0 836 39 1285 150 431 106 878 290 1205 495 635
399 1020 921 1095 1487 127 954 -645 1855 -1965 2293 -591 195 -1301 281
-1975 239z"/>
</g>
</svg>
